<svg width="884" height="1024" viewBox="0 0 884 1024" fill="none" xmlns="http://www.w3.org/2000/svg">
    <rect width="772" height="1024" fill="#FAFAFA" />
    <g opacity="0.09">
        <mask id="mask0_301_22829" style="mask-type:alpha" maskUnits="userSpaceOnUse" x="0" y="0"
            width="772" height="1024">
            <rect width="772" height="1024" fill="#FAFAFA" />
        </mask>
        <g mask="url(#mask0_301_22829)">
            <line y1="-0.5" x2="1853.07" y2="-0.5"
                transform="matrix(0.866041 0.499972 -0.866041 0.499972 -1370.33 452.491)"
                stroke="black" />
            <line y1="-0.5" x2="1853.07" y2="-0.5"
                transform="matrix(-0.866041 0.499972 -0.866041 -0.499972 234.502 -450.321)"
                stroke="black" />
            <line y1="-0.5" x2="1853.07" y2="-0.5"
                transform="matrix(0.866041 0.499972 -0.866041 0.499972 -1258.63 388.004)"
                stroke="black" />
            <line y1="-0.5" x2="1853.07" y2="-0.5"
                transform="matrix(-0.866041 0.499972 -0.866041 -0.499972 346.204 -385.834)"
                stroke="black" />
            <line y1="-0.5" x2="1853.07" y2="-0.5"
                transform="matrix(0.866041 0.499972 -0.866041 0.499972 -1146.93 323.518)"
                stroke="black" />
            <line y1="-0.5" x2="1853.07" y2="-0.5"
                transform="matrix(-0.866041 0.499972 -0.866041 -0.499972 457.907 -321.348)"
                stroke="black" />
            <line y1="-0.5" x2="1853.07" y2="-0.5"
                transform="matrix(0.866041 0.499972 -0.866041 0.499972 -1035.23 259.031)"
                stroke="black" />
            <line y1="-0.5" x2="1853.07" y2="-0.5"
                transform="matrix(-0.866041 0.499972 -0.866041 -0.499972 569.609 -256.861)"
                stroke="black" />
            <line y1="-0.5" x2="1853.07" y2="-0.5"
                transform="matrix(0.866041 0.499972 -0.866041 0.499972 -923.524 194.544)"
                stroke="black" />
            <line y1="-0.5" x2="1853.07" y2="-0.5"
                transform="matrix(-0.866041 0.499972 -0.866041 -0.499972 681.312 -192.375)"
                stroke="black" />
            <line y1="-0.5" x2="1853.07" y2="-0.5"
                transform="matrix(0.866041 0.499972 -0.866041 0.499972 -811.822 130.058)"
                stroke="black" />
            <line y1="-0.5" x2="1853.07" y2="-0.5"
                transform="matrix(-0.866041 0.499972 -0.866041 -0.499972 793.014 -127.888)"
                stroke="black" />
            <line y1="-0.5" x2="1853.07" y2="-0.5"
                transform="matrix(0.866041 0.499972 -0.866041 0.499972 -700.119 65.5713)"
                stroke="black" />
            <line y1="-0.5" x2="1853.07" y2="-0.5"
                transform="matrix(-0.866041 0.499972 -0.866041 -0.499972 904.716 -63.4009)"
                stroke="black" />
            <line y1="-0.5" x2="1853.07" y2="-0.5"
                transform="matrix(0.866041 0.499972 -0.866041 0.499972 -588.417 1.08447)"
                stroke="black" />
            <line y1="-0.5" x2="1853.07" y2="-0.5"
                transform="matrix(-0.866041 0.499972 -0.866041 -0.499972 1016.42 1.08545)"
                stroke="black" />
            <line y1="-0.5" x2="1853.07" y2="-0.5"
                transform="matrix(0.866041 0.499972 -0.866041 0.499972 -476.718 -63.4009)"
                stroke="black" />
            <line y1="-0.5" x2="1853.07" y2="-0.5"
                transform="matrix(-0.866041 0.499972 -0.866041 -0.499972 1128.12 65.5723)"
                stroke="black" />
            <line y1="-0.5" x2="1853.07" y2="-0.5"
                transform="matrix(0.866041 0.499972 -0.866041 0.499972 -365.015 -127.888)"
                stroke="black" />
            <line y1="-0.5" x2="1853.07" y2="-0.5"
                transform="matrix(-0.866041 0.499972 -0.866041 -0.499972 1239.82 130.059)"
                stroke="black" />
            <line y1="-0.5" x2="1853.07" y2="-0.5"
                transform="matrix(0.866041 0.499972 -0.866041 0.499972 -253.312 -192.375)"
                stroke="black" />
            <line y1="-0.5" x2="1853.07" y2="-0.5"
                transform="matrix(-0.866041 0.499972 -0.866041 -0.499972 1351.53 194.545)"
                stroke="black" />
            <line y1="-0.5" x2="1853.07" y2="-0.5"
                transform="matrix(0.866041 0.499972 -0.866041 0.499972 -141.61 -256.861)"
                stroke="black" />
            <line y1="-0.5" x2="1853.07" y2="-0.5"
                transform="matrix(-0.866041 0.499972 -0.866041 -0.499972 1463.23 259.033)"
                stroke="black" />
            <line y1="-0.5" x2="1853.07" y2="-0.5"
                transform="matrix(0.866041 0.499972 -0.866041 0.499972 -29.9077 -321.348)"
                stroke="black" />
            <line y1="-0.5" x2="1853.07" y2="-0.5"
                transform="matrix(-0.866041 0.499972 -0.866041 -0.499972 1574.93 323.519)"
                stroke="black" />
            <line y1="-0.5" x2="1853.07" y2="-0.5"
                transform="matrix(0.866041 0.499972 -0.866041 0.499972 81.7944 -385.834)"
                stroke="black" />
            <line y1="-0.5" x2="1853.07" y2="-0.5"
                transform="matrix(-0.866041 0.499972 -0.866041 -0.499972 1686.63 388.006)"
                stroke="black" />
            <line y1="-0.5" x2="1853.07" y2="-0.5"
                transform="matrix(0.866041 0.499972 -0.866041 0.499972 193.497 -450.321)"
                stroke="black" />
            <line y1="-0.5" x2="1853.07" y2="-0.5"
                transform="matrix(-0.866041 0.499972 -0.866041 -0.499972 1798.34 452.493)"
                stroke="black" />
        </g>
    </g>
    <rect width="129.927" height="129.116"
        transform="matrix(0.866041 -0.499972 0.866041 0.499972 103.126 529.96)"
        fill="url(#paint0_linear_301_22829)" fill-opacity="0.3" />
    <rect width="116.822" height="116.092"
        transform="matrix(0.866041 -0.499972 0.866041 0.499972 114.558 534.721)"
        fill="url(#paint1_linear_301_22829)" fill-opacity="0.7" />
    <path
        d="M278.291 344.88L255.583 331.77V361.886L255.603 361.875C255.758 363.92 257.188 365.938 259.894 367.5L361.208 425.99C366.948 429.304 376.254 429.304 381.994 425.99L638.315 278.014C641.241 276.325 642.675 274.101 642.618 271.888L642.637 271.899V241.782L619.49 255.146L537 207.524C531.261 204.211 521.955 204.211 516.215 207.524L278.291 344.88Z"
        fill="url(#paint2_linear_301_22829)" />
    <rect width="319.969" height="140.986" rx="12"
        transform="matrix(0.866041 -0.499972 0.866041 0.499972 249.501 331.5)" fill="#F9B884" />
    <mask id="mask1_301_22829" style="mask-type:alpha" maskUnits="userSpaceOnUse" x="265" y="175"
        width="378" height="218">
        <rect width="307.97" height="140.986" rx="12"
            transform="matrix(0.866041 -0.499972 0.866041 0.499972 259.893 325.501)" fill="#FDDFC3" />
    </mask>
    <g mask="url(#mask1_301_22829)">
        <path
            d="M395.7 363.301L373.457 400.998L657.38 237.087L647.247 231.237L595.426 223.958C574.66 221.041 553.816 228.59 549.328 240.653L546.169 249.146C542.364 259.373 526.574 266.622 508.458 266.46L476.38 266.173C452.166 265.956 433.793 278.705 438.569 292.411L448.543 321.042C451.559 329.699 445.282 338.556 432.618 343.51L410.343 352.223C403.505 354.898 398.364 358.787 395.7 363.301Z"
            fill="url(#paint3_linear_301_22829)" />
        <path
            d="M395.675 363.345L373.457 400.997L656.006 235.052L599.127 223.941C578.108 219.835 555.497 226.965 550.121 239.393L545.306 250.522C540.82 260.894 524.028 267.884 505.566 267.066L479.395 265.908C454.77 264.817 434.924 277.376 439.06 291.433L448.07 322.062C450.57 330.561 444.21 339.116 431.817 343.925L410.436 352.22C403.54 354.896 398.354 358.804 395.675 363.345Z"
            stroke="url(#paint4_linear_301_22829)" />
    </g>
    <path
        d="M483.624 218.817L485.347 219.812L484.406 220.355L482.683 219.361L483.624 218.817ZM493.174 224.467L494.772 225.39L493.831 225.933L492.232 225.01L493.174 224.467ZM491.593 223.097C491.376 222.971 491.163 222.887 490.953 222.844C490.744 222.8 490.511 222.791 490.255 222.816C489.998 222.841 489.692 222.895 489.337 222.977C488.599 223.157 487.916 223.298 487.289 223.401C486.665 223.501 486.071 223.52 485.507 223.459C484.946 223.395 484.398 223.208 483.861 222.898C483.372 222.616 483.066 222.3 482.943 221.952C482.825 221.601 482.88 221.245 483.109 220.885C483.338 220.521 483.733 220.177 484.293 219.853C484.72 219.607 485.171 219.419 485.649 219.289C486.127 219.159 486.614 219.09 487.111 219.081C487.605 219.069 488.094 219.124 488.579 219.245C489.061 219.363 489.521 219.549 489.959 219.802L487.964 220.954C487.739 220.824 487.522 220.726 487.313 220.66C487.107 220.591 486.912 220.551 486.726 220.54C486.541 220.529 486.369 220.541 486.211 220.578C486.05 220.612 485.904 220.666 485.773 220.742C485.576 220.856 485.46 220.973 485.424 221.094C485.385 221.212 485.406 221.327 485.489 221.439C485.572 221.551 485.698 221.655 485.868 221.753C486.046 221.856 486.231 221.929 486.425 221.972C486.618 222.011 486.847 222.02 487.111 221.999C487.372 221.977 487.691 221.924 488.07 221.842C488.801 221.671 489.483 221.537 490.119 221.439C490.754 221.341 491.356 221.324 491.924 221.388C492.493 221.447 493.043 221.63 493.576 221.938C494.089 222.234 494.407 222.557 494.529 222.905C494.648 223.251 494.587 223.604 494.346 223.961C494.105 224.319 493.702 224.661 493.138 224.987C492.759 225.205 492.333 225.394 491.859 225.554C491.39 225.711 490.89 225.815 490.361 225.865C489.833 225.911 489.292 225.879 488.739 225.769C488.187 225.66 487.64 225.449 487.099 225.137L489.095 223.985C489.359 224.138 489.612 224.247 489.852 224.313C490.093 224.379 490.32 224.412 490.533 224.412C490.746 224.408 490.946 224.379 491.131 224.327C491.313 224.272 491.478 224.202 491.628 224.115C491.83 223.999 491.954 223.881 492.001 223.763C492.045 223.642 492.029 223.526 491.954 223.414C491.879 223.298 491.759 223.192 491.593 223.097ZM492.735 215.123L501.355 220.099L499.36 221.251L492.99 217.573L491.599 219.04L490.083 218.165L492.552 215.229L492.735 215.123ZM507.583 213.763C508.132 214.079 508.462 214.42 508.572 214.784C508.686 215.147 508.61 215.512 508.341 215.882C508.077 216.248 507.656 216.598 507.08 216.931C506.508 217.261 505.9 217.505 505.257 217.662C504.617 217.817 503.98 217.864 503.344 217.802C502.709 217.741 502.117 217.552 501.568 217.235C501.193 217.019 500.933 216.782 500.787 216.524C500.641 216.262 500.599 215.992 500.663 215.714C500.726 215.436 500.884 215.16 501.136 214.887C501.393 214.611 501.734 214.35 502.16 214.104C502.737 213.772 503.35 213.531 504.002 213.383C504.649 213.233 505.282 213.186 505.902 213.243C506.522 213.3 507.082 213.473 507.583 213.763ZM505.417 214.829C505.18 214.692 504.939 214.601 504.694 214.556C504.446 214.508 504.203 214.502 503.966 214.538C503.729 214.575 503.51 214.651 503.309 214.767C503.112 214.881 502.979 215.008 502.912 215.147C502.849 215.283 502.857 215.425 502.936 215.571C503.015 215.712 503.173 215.851 503.41 215.988C503.639 216.12 503.881 216.21 504.138 216.258C504.39 216.303 504.637 216.309 504.878 216.275C505.119 216.236 505.34 216.158 505.541 216.042C505.742 215.926 505.872 215.801 505.932 215.666C505.991 215.527 505.977 215.387 505.89 215.246C505.803 215.1 505.645 214.961 505.417 214.829ZM503.463 211.589C503.913 211.849 504.187 212.146 504.286 212.481C504.384 212.811 504.315 213.154 504.079 213.51C503.842 213.861 503.447 214.195 502.895 214.514C502.346 214.831 501.764 215.06 501.148 215.201C500.532 215.338 499.934 215.38 499.354 215.328C498.774 215.271 498.259 215.113 497.809 214.853C497.28 214.548 496.957 214.222 496.838 213.875C496.724 213.527 496.787 213.176 497.028 212.823C497.268 212.47 497.661 212.136 498.206 211.821C498.758 211.502 499.34 211.273 499.952 211.134C500.564 210.995 501.17 210.96 501.77 211.028C502.37 211.097 502.934 211.284 503.463 211.589ZM501.574 212.802C501.369 212.684 501.162 212.601 500.953 212.553C500.74 212.503 500.532 212.49 500.331 212.515C500.126 212.538 499.93 212.603 499.745 212.71C499.567 212.812 499.457 212.922 499.413 213.038C499.37 213.154 499.392 213.274 499.479 213.397C499.561 213.518 499.707 213.638 499.917 213.759C500.122 213.878 500.333 213.963 500.55 214.015C500.767 214.068 500.98 214.084 501.19 214.063C501.403 214.041 501.6 213.977 501.782 213.872C501.967 213.765 502.076 213.652 502.107 213.534C502.143 213.413 502.113 213.291 502.018 213.168C501.928 213.043 501.78 212.921 501.574 212.802ZM507.678 210.509L508.649 209.948C508.898 209.805 509.057 209.662 509.129 209.521C509.2 209.375 509.194 209.233 509.111 209.094C509.024 208.953 508.868 208.817 508.643 208.687C508.469 208.587 508.272 208.516 508.051 208.475C507.834 208.432 507.607 208.429 507.37 208.465C507.129 208.499 506.893 208.584 506.66 208.718C506.502 208.809 506.382 208.917 506.299 209.043C506.212 209.166 506.178 209.29 506.198 209.415C506.222 209.538 506.318 209.649 506.488 209.747L504.487 210.902C503.998 210.619 503.714 210.3 503.635 209.945C503.556 209.585 503.644 209.224 503.901 208.861C504.158 208.495 504.542 208.163 505.055 207.867C505.667 207.514 506.299 207.259 506.95 207.101C507.597 206.942 508.233 206.894 508.856 206.958C509.48 207.017 510.06 207.202 510.597 207.511C510.893 207.682 511.102 207.883 511.224 208.113C511.347 208.343 511.382 208.587 511.331 208.844C511.28 209.102 511.143 209.36 510.922 209.62C510.701 209.875 510.393 210.117 509.999 210.345L508.696 211.097L507.678 210.509ZM509.164 211.367L508.169 210.793L509.472 210.041C509.902 209.792 510.344 209.594 510.798 209.446C511.248 209.296 511.696 209.201 512.142 209.162C512.588 209.124 513.02 209.145 513.438 209.227C513.853 209.307 514.24 209.45 514.599 209.658C515.001 209.89 515.28 210.144 515.434 210.42C515.587 210.696 515.627 210.981 515.552 211.274C515.477 211.568 515.301 211.861 515.025 212.153C514.745 212.442 514.376 212.719 513.918 212.983C513.559 213.191 513.152 213.371 512.698 213.523C512.241 213.674 511.763 213.776 511.266 213.831C510.764 213.883 510.265 213.871 509.768 213.793C509.271 213.711 508.801 213.543 508.359 213.288L510.36 212.132C510.541 212.237 510.757 212.304 511.005 212.334C511.254 212.359 511.506 212.348 511.763 212.3C512.02 212.252 512.246 212.171 512.444 212.057C512.689 211.916 512.85 211.77 512.929 211.62C513.008 211.465 513.014 211.315 512.947 211.172C512.88 211.028 512.75 210.901 512.556 210.789C512.264 210.62 511.982 210.515 511.71 210.471C511.441 210.426 511.175 210.434 510.91 210.495C510.65 210.554 510.391 210.658 510.135 210.806L509.164 211.367ZM517.819 208.885L517.938 208.817C518.332 208.589 518.644 208.359 518.873 208.127C519.102 207.894 519.238 207.661 519.282 207.426C519.321 207.189 519.254 206.952 519.08 206.715C518.907 206.474 518.611 206.232 518.192 205.991L516.41 204.962C516.134 204.802 515.872 204.678 515.623 204.589C515.37 204.498 515.132 204.44 514.907 204.415C514.682 204.39 514.474 204.396 514.285 204.432C514.092 204.466 513.916 204.529 513.758 204.62C513.6 204.711 513.506 204.818 513.474 204.941C513.442 205.06 513.458 205.187 513.521 205.324C513.584 205.456 513.687 205.588 513.829 205.721C513.967 205.85 514.129 205.969 514.315 206.076C514.524 206.197 514.741 206.297 514.966 206.377C515.191 206.452 515.414 206.503 515.635 206.531C515.856 206.553 516.071 206.548 516.28 206.513C516.493 206.477 516.691 206.406 516.872 206.302C517.054 206.197 517.178 206.089 517.245 205.977C517.312 205.861 517.336 205.747 517.316 205.635C517.292 205.521 517.237 205.416 517.15 205.321C517.068 205.223 516.963 205.14 516.837 205.071L517.873 204.999C518.125 205.145 518.317 205.322 518.447 205.529C518.577 205.736 518.642 205.956 518.642 206.189C518.638 206.419 518.563 206.644 518.417 206.865C518.275 207.084 518.058 207.278 517.766 207.447C517.375 207.672 516.953 207.836 516.499 207.939C516.049 208.039 515.585 208.079 515.108 208.058C514.63 208.038 514.155 207.959 513.681 207.822C513.208 207.681 512.752 207.484 512.314 207.231C511.891 206.987 511.568 206.716 511.343 206.418C511.118 206.119 510.999 205.812 510.987 205.495C510.972 205.176 511.066 204.864 511.272 204.558C511.477 204.253 511.799 203.974 512.237 203.721C512.651 203.482 513.119 203.303 513.64 203.185C514.157 203.064 514.703 203.01 515.28 203.024C515.856 203.038 516.442 203.125 517.038 203.287C517.634 203.449 518.214 203.693 518.778 204.018L519.465 204.415C520.077 204.768 520.555 205.13 520.898 205.502C521.241 205.873 521.462 206.247 521.561 206.623C521.656 206.997 521.64 207.366 521.514 207.73C521.387 208.09 521.158 208.439 520.827 208.776C520.499 209.111 520.081 209.425 519.572 209.719L519.418 209.808L517.819 208.885ZM524.296 205.775C524.012 205.611 523.878 205.415 523.894 205.187C523.905 204.957 524.073 204.749 524.397 204.562C524.724 204.373 525.085 204.276 525.48 204.271C525.875 204.262 526.214 204.34 526.498 204.504C526.783 204.668 526.919 204.865 526.907 205.095C526.895 205.321 526.725 205.528 526.398 205.717C526.074 205.904 525.715 206.002 525.32 206.011C524.922 206.018 524.58 205.939 524.296 205.775ZM529.63 197.89L531.205 198.8C531.825 199.157 532.29 199.51 532.602 199.859C532.918 200.205 533.092 200.543 533.123 200.871C533.159 201.197 533.066 201.508 532.845 201.804C532.624 202.1 532.292 202.376 531.85 202.631C531.495 202.836 531.118 203.001 530.72 203.126C530.317 203.249 529.897 203.328 529.459 203.362C529.02 203.392 528.568 203.375 528.103 203.311C527.637 203.247 527.161 203.13 526.676 202.959C526.187 202.786 525.693 202.556 525.196 202.269L523.621 201.359C522.998 200.999 522.53 200.647 522.218 200.303C521.906 199.955 521.735 199.616 521.703 199.288C521.671 198.96 521.766 198.648 521.987 198.352C522.208 198.056 522.54 197.78 522.982 197.525C523.337 197.32 523.714 197.157 524.113 197.036C524.511 196.911 524.932 196.832 525.374 196.8C525.812 196.766 526.262 196.782 526.723 196.848C527.189 196.912 527.667 197.03 528.156 197.203C528.642 197.374 529.133 197.603 529.63 197.89ZM529.453 200.091L527.381 198.895C527.104 198.736 526.848 198.606 526.611 198.506C526.378 198.403 526.161 198.328 525.96 198.28C525.762 198.23 525.579 198.204 525.409 198.201C525.235 198.197 525.076 198.214 524.93 198.253C524.784 198.287 524.647 198.34 524.521 198.413C524.363 198.504 524.255 198.606 524.195 198.718C524.136 198.825 524.134 198.944 524.19 199.076C524.245 199.209 524.367 199.357 524.557 199.521C524.75 199.682 525.018 199.862 525.362 200.061L527.434 201.257C527.714 201.419 527.973 201.552 528.209 201.657C528.446 201.757 528.665 201.833 528.866 201.886C529.068 201.934 529.255 201.96 529.429 201.964C529.599 201.967 529.756 201.948 529.903 201.91C530.049 201.871 530.185 201.815 530.311 201.742C530.465 201.653 530.571 201.555 530.631 201.448C530.69 201.341 530.692 201.222 530.637 201.089C530.581 200.953 530.457 200.803 530.264 200.642C530.07 200.475 529.8 200.292 529.453 200.091ZM504.65 228.311L506.225 229.22C506.845 229.577 507.31 229.931 507.622 230.279C507.938 230.626 508.112 230.963 508.143 231.291C508.179 231.617 508.086 231.928 507.865 232.224C507.644 232.52 507.312 232.796 506.87 233.051C506.515 233.256 506.138 233.421 505.74 233.547C505.337 233.67 504.917 233.748 504.479 233.782C504.041 233.812 503.589 233.795 503.123 233.731C502.657 233.667 502.182 233.55 501.696 233.379C501.207 233.206 500.713 232.976 500.216 232.689L498.641 231.78C498.018 231.42 497.55 231.068 497.238 230.724C496.926 230.375 496.755 230.037 496.723 229.708C496.692 229.38 496.786 229.068 497.007 228.772C497.228 228.476 497.56 228.2 498.002 227.945C498.357 227.74 498.734 227.577 499.133 227.456C499.531 227.331 499.952 227.252 500.394 227.22C500.832 227.186 501.282 227.202 501.743 227.268C502.209 227.332 502.687 227.45 503.176 227.624C503.662 227.795 504.153 228.024 504.65 228.311ZM504.473 230.512L502.401 229.315C502.124 229.156 501.868 229.026 501.631 228.926C501.398 228.823 501.181 228.748 500.98 228.7C500.782 228.65 500.599 228.624 500.429 228.622C500.256 228.617 500.096 228.634 499.95 228.673C499.804 228.707 499.667 228.761 499.541 228.834C499.383 228.925 499.275 229.026 499.216 229.138C499.156 229.245 499.154 229.364 499.21 229.497C499.265 229.629 499.387 229.777 499.577 229.941C499.77 230.103 500.038 230.283 500.382 230.481L502.454 231.677C502.734 231.839 502.993 231.972 503.229 232.077C503.466 232.177 503.685 232.254 503.887 232.306C504.088 232.354 504.275 232.38 504.449 232.385C504.619 232.387 504.777 232.369 504.923 232.33C505.069 232.291 505.205 232.235 505.331 232.162C505.485 232.074 505.592 231.976 505.651 231.869C505.71 231.761 505.712 231.642 505.657 231.51C505.601 231.373 505.477 231.224 505.284 231.062C505.09 230.896 504.82 230.712 504.473 230.512Z"
        fill="white" />
    <path
        d="M306.39 344.074L313.819 348.363L312.88 348.905L306.623 345.292L305.42 346.784L304.573 346.294L306.242 344.159L306.39 344.074ZM316.934 341.619L318.061 342.269C318.666 342.619 319.123 342.945 319.431 343.248C319.739 343.55 319.918 343.834 319.969 344.097C320.02 344.361 319.959 344.609 319.786 344.841C319.614 345.07 319.348 345.288 318.99 345.495C318.705 345.659 318.408 345.789 318.096 345.887C317.785 345.985 317.455 346.044 317.107 346.066C316.758 346.083 316.39 346.058 316.001 345.99C315.612 345.921 315.201 345.803 314.768 345.635C314.335 345.467 313.876 345.244 313.392 344.964L312.266 344.314C311.66 343.964 311.207 343.64 310.906 343.341C310.608 343.041 310.437 342.76 310.393 342.501C310.346 342.239 310.41 341.995 310.586 341.768C310.766 341.54 311.033 341.323 311.388 341.118C311.676 340.952 311.975 340.82 312.286 340.722C312.597 340.621 312.924 340.559 313.266 340.538C313.604 340.514 313.964 340.537 314.346 340.605C314.729 340.67 315.135 340.785 315.564 340.951C315.994 341.117 316.451 341.34 316.934 341.619ZM317.269 342.902L315.833 342.073C315.502 341.881 315.19 341.725 314.9 341.604C314.609 341.479 314.336 341.386 314.083 341.326C313.829 341.265 313.589 341.236 313.362 341.238C313.139 341.238 312.927 341.266 312.728 341.323C312.528 341.376 312.337 341.455 312.154 341.56C311.931 341.689 311.775 341.828 311.687 341.976C311.596 342.123 311.581 342.282 311.642 342.454C311.706 342.624 311.853 342.81 312.083 343.013C312.313 343.216 312.636 343.438 313.052 343.678L314.488 344.507C314.82 344.699 315.131 344.857 315.422 344.982C315.717 345.105 315.996 345.198 316.259 345.26C316.52 345.321 316.765 345.353 316.995 345.357C317.225 345.361 317.442 345.337 317.645 345.287C317.848 345.232 318.039 345.153 318.218 345.049C318.448 344.916 318.606 344.775 318.69 344.624C318.775 344.474 318.781 344.312 318.71 344.138C318.639 343.96 318.485 343.77 318.249 343.567C318.008 343.362 317.682 343.14 317.269 342.902ZM316.767 340.221L316.376 339.996C316.095 339.834 315.901 339.651 315.793 339.448C315.684 339.245 315.674 339.038 315.762 338.827C315.85 338.616 316.05 338.421 316.361 338.241C316.679 338.057 317.019 337.941 317.381 337.892C317.746 337.842 318.105 337.848 318.457 337.91C318.809 337.972 319.125 338.085 319.406 338.247L319.796 338.472C320.07 338.631 320.262 338.811 320.37 339.014C320.481 339.216 320.493 339.422 320.405 339.633C320.321 339.842 320.121 340.037 319.807 340.218C319.492 340.4 319.15 340.517 318.781 340.57C318.416 340.621 318.058 340.615 317.706 340.552C317.354 340.49 317.041 340.38 316.767 340.221ZM317.082 339.589L317.472 339.814C317.628 339.904 317.804 339.972 318 340.019C318.2 340.064 318.404 340.077 318.614 340.057C318.82 340.036 319.015 339.972 319.198 339.867C319.38 339.761 319.489 339.65 319.522 339.533C319.553 339.414 319.527 339.298 319.446 339.184C319.365 339.071 319.247 338.97 319.091 338.88L318.7 338.654C318.541 338.562 318.362 338.494 318.162 338.449C317.963 338.4 317.76 338.387 317.553 338.408C317.347 338.426 317.153 338.487 316.97 338.593C316.791 338.696 316.684 338.808 316.65 338.929C316.616 339.047 316.64 339.164 316.721 339.281C316.802 339.394 316.923 339.497 317.082 339.589ZM324.526 340.547L324.13 340.318C323.853 340.158 323.66 339.976 323.551 339.773C323.443 339.57 323.433 339.363 323.521 339.152C323.609 338.941 323.809 338.746 324.12 338.566C324.438 338.383 324.778 338.266 325.14 338.218C325.505 338.167 325.864 338.173 326.216 338.235C326.567 338.298 326.882 338.409 327.159 338.569L327.555 338.798C327.833 338.958 328.025 339.139 328.134 339.343C328.245 339.544 328.257 339.75 328.169 339.961C328.085 340.17 327.885 340.365 327.57 340.547C327.256 340.728 326.916 340.844 326.55 340.895C326.185 340.946 325.825 340.941 325.47 340.881C325.118 340.818 324.803 340.707 324.526 340.547ZM324.835 339.911L325.231 340.139C325.387 340.229 325.564 340.299 325.764 340.347C325.964 340.392 326.168 340.405 326.378 340.385C326.584 340.364 326.779 340.3 326.962 340.195C327.144 340.09 327.252 339.978 327.286 339.861C327.32 339.74 327.296 339.623 327.215 339.51C327.134 339.396 327.014 339.294 326.855 339.202L326.459 338.973C326.3 338.882 326.121 338.813 325.921 338.768C325.725 338.721 325.524 338.709 325.317 338.73C325.111 338.748 324.915 338.81 324.729 338.918C324.549 339.021 324.443 339.134 324.409 339.255C324.375 339.372 324.397 339.488 324.475 339.603C324.556 339.717 324.676 339.819 324.835 339.911ZM321.349 336.697L323.516 342.114L322.653 342.225L320.487 336.809L321.349 336.697ZM332.686 334.125L330.712 335.265L329.915 334.805L331.889 333.665C332.271 333.444 332.52 333.231 332.635 333.024C332.75 332.817 332.753 332.619 332.645 332.432C332.54 332.242 332.349 332.068 332.071 331.907C331.818 331.761 331.523 331.655 331.189 331.591C330.857 331.525 330.505 331.521 330.133 331.579C329.758 331.636 329.379 331.775 328.996 331.995L327.251 333.003L333.837 336.806L332.858 337.371L325.47 333.106L328.195 331.532C328.753 331.21 329.321 330.993 329.9 330.882C330.478 330.771 331.038 330.756 331.579 330.838C332.117 330.918 332.604 331.084 333.041 331.336C333.514 331.61 333.819 331.901 333.954 332.209C334.089 332.518 334.052 332.834 333.842 333.158C333.629 333.481 333.244 333.803 332.686 334.125ZM335.583 330.454L340.211 333.126L339.272 333.668L333.782 330.498L334.695 329.971L335.583 330.454ZM336.405 328.949L337.273 329.455C337.178 329.491 337.094 329.528 337.019 329.567C336.945 329.602 336.863 329.645 336.776 329.696C336.559 329.821 336.402 329.95 336.304 330.085C336.205 330.22 336.16 330.356 336.167 330.492C336.173 330.629 336.227 330.766 336.329 330.903C336.43 331.035 336.571 331.165 336.75 331.292L336.639 331.532C336.307 331.341 336.028 331.143 335.801 330.938C335.578 330.731 335.424 330.523 335.339 330.314C335.251 330.103 335.251 329.9 335.339 329.704C335.427 329.505 335.62 329.32 335.918 329.148C335.986 329.109 336.072 329.069 336.177 329.028C336.278 328.985 336.354 328.958 336.405 328.949ZM339.759 330.287L339.643 330.22C339.247 329.991 338.937 329.746 338.714 329.485C338.487 329.221 338.357 328.954 338.323 328.685C338.286 328.413 338.352 328.149 338.521 327.891C338.687 327.631 338.961 327.391 339.343 327.17C339.729 326.948 340.147 326.789 340.597 326.693C341.047 326.593 341.507 326.554 341.977 326.576C342.447 326.593 342.911 326.667 343.367 326.798C343.821 326.927 344.245 327.106 344.641 327.334L344.758 327.402C345.153 327.63 345.463 327.875 345.686 328.137C345.91 328.399 346.038 328.666 346.072 328.94C346.106 329.209 346.04 329.474 345.874 329.734C345.708 329.99 345.433 330.229 345.047 330.451C344.661 330.674 344.245 330.834 343.799 330.932C343.349 331.028 342.889 331.067 342.418 331.049C341.948 331.028 341.486 330.952 341.033 330.823C340.58 330.695 340.155 330.516 339.759 330.287ZM340.581 329.678L340.698 329.745C340.972 329.904 341.263 330.034 341.571 330.138C341.875 330.24 342.185 330.307 342.5 330.34C342.818 330.371 343.129 330.362 343.433 330.311C343.734 330.258 344.015 330.157 344.276 330.006C344.533 329.858 344.705 329.698 344.793 329.526C344.881 329.35 344.896 329.171 344.839 328.99C344.781 328.808 344.665 328.629 344.489 328.453C344.313 328.274 344.088 328.105 343.814 327.947L343.697 327.879C343.426 327.723 343.137 327.595 342.829 327.496C342.522 327.392 342.209 327.325 341.891 327.293C341.573 327.258 341.261 327.266 340.957 327.317C340.656 327.366 340.375 327.465 340.115 327.616C339.857 327.764 339.685 327.926 339.597 328.102C339.512 328.276 339.499 328.455 339.556 328.641C339.614 328.823 339.732 329.002 339.912 329.18C340.087 329.356 340.311 329.522 340.581 329.678ZM349.873 327.548L348.934 328.09L342.966 324.645C342.55 324.405 342.28 324.155 342.154 323.895C342.029 323.635 342.043 323.376 342.195 323.116C342.347 322.856 342.63 322.607 343.042 322.369C343.286 322.228 343.555 322.108 343.849 322.009C344.14 321.907 344.453 321.81 344.788 321.719L345.422 322.266C345.206 322.321 344.967 322.392 344.707 322.48C344.446 322.564 344.194 322.676 343.951 322.817C343.548 323.049 343.349 323.27 343.352 323.479C343.355 323.684 343.54 323.892 343.905 324.103L349.873 327.548ZM345.504 323.731L346.224 324.147L343.296 325.837L342.576 325.421L345.504 323.731ZM347.351 322.665L352.841 325.834L351.902 326.376L346.412 323.207L347.351 322.665ZM351.192 320.447L351.913 320.863L348.944 322.577L348.224 322.161L351.192 320.447ZM347.894 320.81L348.832 320.268L354.298 323.423C354.484 323.531 354.653 323.595 354.805 323.617C354.957 323.638 355.094 323.631 355.216 323.596C355.338 323.561 355.451 323.513 355.556 323.453C355.634 323.408 355.708 323.357 355.779 323.3C355.85 323.24 355.903 323.194 355.937 323.163L356.708 323.602C356.657 323.659 356.581 323.728 356.48 323.81C356.385 323.892 356.253 323.982 356.084 324.08C355.854 324.213 355.597 324.308 355.313 324.367C355.028 324.425 354.722 324.426 354.394 324.37C354.066 324.309 353.719 324.173 353.354 323.963L347.894 320.81Z"
        fill="#FBE9E7" />
    <path
        d="M290.416 334.379L288.219 335.647L287.124 335.029L289.042 333.921C289.366 333.734 289.593 333.549 289.723 333.364C289.853 333.175 289.887 332.994 289.824 332.821C289.757 332.645 289.593 332.482 289.332 332.332C289.044 332.166 288.754 332.062 288.462 332.021C288.17 331.98 287.868 332.002 287.556 332.086C287.248 332.168 286.919 332.31 286.568 332.513L285.129 333.344L292.565 337.636L291.079 338.494L282.459 333.518L285.383 331.83C285.857 331.556 286.325 331.339 286.787 331.177C287.252 331.013 287.712 330.911 288.166 330.873C288.62 330.829 289.06 330.853 289.486 330.944C289.916 331.033 290.333 331.194 290.735 331.426C291.091 331.631 291.331 331.868 291.458 332.137C291.58 332.404 291.568 332.686 291.422 332.985C291.276 333.283 290.974 333.585 290.516 333.89L290.416 334.379ZM294.246 336.666L291.647 338.166L291.138 337.1L293.068 335.986C293.403 335.792 293.628 335.598 293.743 335.405C293.853 335.209 293.865 335.022 293.778 334.844C293.692 334.662 293.514 334.493 293.246 334.338C292.965 334.176 292.673 334.065 292.369 334.003C292.061 333.939 291.746 333.937 291.422 333.996C291.095 334.053 290.759 334.181 290.416 334.379L288.746 335.343L287.675 334.711L289.847 333.456L290.593 333.497C291.083 333.233 291.576 333.069 292.073 333.005C292.575 332.939 293.054 332.952 293.512 333.043C293.97 333.134 294.376 333.282 294.731 333.487C295.28 333.804 295.62 334.139 295.75 334.492C295.884 334.843 295.825 335.203 295.572 335.572C295.316 335.939 294.874 336.303 294.246 336.666ZM300.924 331.327L297.869 329.564C297.64 329.431 297.402 329.341 297.153 329.294C296.904 329.246 296.65 329.245 296.389 329.29C296.133 329.333 295.878 329.428 295.625 329.574C295.393 329.708 295.231 329.847 295.14 329.991C295.049 330.134 295.024 330.272 295.063 330.404C295.102 330.537 295.207 330.652 295.377 330.75L293.956 331.57C293.703 331.424 293.52 331.247 293.405 331.04C293.291 330.833 293.257 330.608 293.305 330.367C293.352 330.125 293.484 329.88 293.701 329.632C293.918 329.384 294.228 329.143 294.631 328.911C295.112 328.633 295.62 328.433 296.152 328.313C296.689 328.19 297.228 328.161 297.769 328.227C298.309 328.289 298.824 328.461 299.314 328.743L302.161 330.387C302.453 330.556 302.736 330.696 303.008 330.808C303.28 330.915 303.541 330.994 303.789 331.047L303.884 331.102L302.422 331.946C302.201 331.896 301.952 331.814 301.676 331.7C301.4 331.581 301.149 331.457 300.924 331.327ZM298.52 329.7L299.414 330.203L298.39 330.794C298.126 330.947 297.919 331.096 297.769 331.242C297.615 331.385 297.518 331.523 297.478 331.655C297.439 331.787 297.453 331.912 297.52 332.028C297.587 332.144 297.705 332.251 297.875 332.349C298.045 332.447 298.24 332.514 298.461 332.551C298.678 332.585 298.901 332.581 299.13 332.54C299.363 332.497 299.588 332.413 299.805 332.288C300.097 332.119 300.293 331.938 300.391 331.744C300.49 331.546 300.516 331.36 300.468 331.187C300.417 331.012 300.316 330.876 300.166 330.78L301.261 330.879C301.376 331 301.469 331.147 301.54 331.32C301.611 331.493 301.638 331.683 301.623 331.888C301.607 332.088 301.524 332.293 301.374 332.503C301.228 332.71 300.989 332.91 300.658 333.101C300.239 333.343 299.783 333.51 299.29 333.603C298.793 333.695 298.309 333.712 297.84 333.655C297.366 333.595 296.948 333.461 296.585 333.251C296.245 333.055 296.008 332.846 295.874 332.622C295.74 332.395 295.708 332.158 295.779 331.912C295.854 331.663 296.028 331.408 296.3 331.146C296.569 330.882 296.936 330.615 297.402 330.346L298.52 329.7ZM298.799 326.641L300.231 325.814L307.194 329.834C307.632 330.087 307.926 330.343 308.076 330.603C308.23 330.865 308.237 331.124 308.099 331.382C307.965 331.642 307.687 331.893 307.265 332.137C307.138 332.21 306.998 332.28 306.844 332.346C306.69 332.416 306.536 332.478 306.382 332.53L305.275 331.884C305.374 331.846 305.475 331.801 305.577 331.751C305.68 331.705 305.773 331.659 305.856 331.611C306.025 331.513 306.138 331.414 306.193 331.313C306.248 331.213 306.242 331.11 306.175 331.002C306.108 330.895 305.97 330.781 305.761 330.661L298.799 326.641ZM296.993 325.743C296.776 325.617 296.669 325.471 296.673 325.305C296.673 325.136 296.8 324.979 297.052 324.833C297.309 324.685 297.581 324.612 297.869 324.615C298.157 324.612 298.41 324.674 298.627 324.799C298.84 324.922 298.945 325.067 298.941 325.233C298.941 325.397 298.812 325.553 298.556 325.701C298.303 325.847 298.033 325.921 297.745 325.924C297.457 325.926 297.206 325.866 296.993 325.743ZM310.503 325.797L307.448 324.034C307.219 323.901 306.98 323.811 306.732 323.764C306.483 323.716 306.229 323.715 305.968 323.76C305.711 323.803 305.457 323.898 305.204 324.044C304.971 324.178 304.81 324.317 304.719 324.461C304.628 324.604 304.602 324.742 304.642 324.874C304.681 325.007 304.786 325.122 304.956 325.22L303.535 326.04C303.282 325.894 303.099 325.717 302.984 325.51C302.87 325.303 302.836 325.078 302.884 324.837C302.931 324.595 303.063 324.35 303.28 324.102C303.497 323.854 303.807 323.613 304.21 323.381C304.691 323.103 305.198 322.903 305.731 322.783C306.268 322.66 306.807 322.631 307.347 322.697C307.888 322.759 308.403 322.931 308.893 323.213L311.74 324.857C312.032 325.026 312.314 325.166 312.587 325.278C312.859 325.385 313.12 325.465 313.368 325.517L313.463 325.572L312.001 326.416C311.78 326.366 311.531 326.284 311.255 326.17C310.979 326.051 310.728 325.927 310.503 325.797ZM308.099 324.17L308.993 324.673L307.969 325.264C307.705 325.417 307.497 325.566 307.347 325.712C307.194 325.855 307.097 325.993 307.057 326.125C307.018 326.257 307.032 326.382 307.099 326.498C307.166 326.614 307.284 326.721 307.454 326.819C307.624 326.917 307.819 326.984 308.04 327.021C308.257 327.055 308.48 327.052 308.709 327.011C308.942 326.967 309.167 326.883 309.384 326.758C309.676 326.589 309.871 326.408 309.97 326.214C310.069 326.016 310.094 325.83 310.047 325.657C309.996 325.482 309.895 325.346 309.745 325.25L310.84 325.349C310.955 325.47 311.048 325.617 311.119 325.79C311.19 325.964 311.217 326.153 311.202 326.358C311.186 326.558 311.103 326.763 310.953 326.973C310.807 327.18 310.568 327.38 310.237 327.571C309.818 327.813 309.362 327.98 308.869 328.073C308.372 328.165 307.888 328.182 307.418 328.125C306.945 328.065 306.527 327.931 306.163 327.721C305.824 327.525 305.587 327.316 305.453 327.093C305.319 326.865 305.287 326.628 305.358 326.382C305.433 326.133 305.607 325.878 305.879 325.616C306.148 325.352 306.515 325.085 306.98 324.816L308.099 324.17ZM308.378 321.111L309.81 320.284L316.772 324.304C317.211 324.557 317.505 324.813 317.655 325.073C317.808 325.335 317.816 325.594 317.678 325.852C317.544 326.112 317.266 326.363 316.843 326.607C316.717 326.68 316.577 326.75 316.423 326.816C316.269 326.886 316.115 326.948 315.961 327L314.854 326.354C314.953 326.316 315.054 326.271 315.156 326.221C315.259 326.175 315.352 326.129 315.434 326.081C315.604 325.983 315.717 325.884 315.772 325.784C315.827 325.683 315.821 325.58 315.754 325.472C315.687 325.365 315.549 325.251 315.34 325.131L308.378 321.111ZM306.572 320.213C306.355 320.087 306.248 319.941 306.252 319.775C306.252 319.606 306.379 319.449 306.631 319.303C306.888 319.155 307.16 319.082 307.448 319.085C307.736 319.082 307.989 319.144 308.206 319.269C308.419 319.392 308.524 319.537 308.52 319.703C308.52 319.867 308.391 320.023 308.135 320.172C307.882 320.317 307.612 320.391 307.324 320.394C307.036 320.396 306.785 320.336 306.572 320.213ZM313.783 315.434L322.403 320.411L320.917 321.269L312.297 316.292L313.783 315.434ZM321.07 315.581L322.249 316.262L318.353 318.51L317.175 317.83L321.07 315.581ZM317.791 313.121L318.975 313.804L314.588 316.337L313.404 315.653L317.791 313.121ZM322.574 312.916L328.98 316.614L327.547 317.441L321.142 313.743L322.574 312.916ZM319.365 312.827C319.148 312.701 319.04 312.557 319.04 312.393C319.04 312.224 319.168 312.066 319.425 311.918C319.677 311.772 319.95 311.699 320.242 311.699C320.53 311.697 320.782 311.758 320.999 311.883C321.213 312.006 321.317 312.151 321.313 312.317C321.309 312.484 321.181 312.64 320.928 312.786C320.672 312.934 320.4 313.009 320.111 313.011C319.827 313.011 319.579 312.95 319.365 312.827ZM326.92 311.986L331.958 314.894L330.531 315.718L324.125 312.02L325.469 311.244L326.92 311.986ZM328.264 313.056L327.796 313.319C327.346 313.055 326.993 312.778 326.736 312.488C326.484 312.197 326.332 311.908 326.28 311.624C326.233 311.337 326.292 311.061 326.458 310.797C326.62 310.53 326.892 310.286 327.275 310.065C327.583 309.887 327.904 309.752 328.24 309.658C328.575 309.56 328.927 309.515 329.294 309.522C329.665 309.526 330.049 309.589 330.448 309.71C330.843 309.828 331.259 310.014 331.697 310.267L335.835 312.656L334.403 313.483L330.259 311.09C329.951 310.913 329.663 310.799 329.394 310.749C329.126 310.694 328.869 310.694 328.625 310.749C328.38 310.799 328.133 310.896 327.885 311.039C327.64 311.18 327.472 311.337 327.381 311.507C327.291 311.678 327.267 311.854 327.31 312.034C327.358 312.212 327.462 312.388 327.624 312.564C327.786 312.739 327.999 312.903 328.264 313.056ZM339.151 308.739C339.009 308.657 338.845 308.603 338.659 308.578C338.47 308.551 338.227 308.568 337.931 308.63C337.639 308.689 337.26 308.807 336.795 308.985C336.38 309.138 335.98 309.267 335.593 309.371C335.206 309.472 334.837 309.537 334.486 309.566C334.134 309.596 333.801 309.583 333.485 309.529C333.169 309.474 332.877 309.369 332.609 309.214C332.348 309.064 332.159 308.888 332.041 308.688C331.922 308.487 331.881 308.274 331.916 308.049C331.952 307.823 332.07 307.593 332.272 307.358C332.477 307.121 332.769 306.893 333.148 306.675C333.684 306.365 334.235 306.152 334.799 306.036C335.364 305.915 335.903 305.884 336.416 305.943C336.925 306 337.371 306.139 337.754 306.36L336.327 307.184C336.157 307.086 335.956 307.02 335.723 306.986C335.49 306.947 335.243 306.95 334.983 306.996C334.719 307.039 334.458 307.135 334.201 307.283C333.957 307.424 333.793 307.564 333.71 307.703C333.627 307.838 333.608 307.963 333.651 308.079C333.698 308.193 333.795 308.292 333.941 308.377C334.048 308.438 334.164 308.483 334.29 308.51C334.417 308.533 334.565 308.536 334.734 308.52C334.9 308.502 335.097 308.461 335.326 308.397C335.559 308.331 335.833 308.239 336.149 308.12C336.741 307.897 337.294 307.731 337.807 307.621C338.32 307.508 338.798 307.469 339.24 307.505C339.678 307.539 340.088 307.667 340.471 307.888C340.755 308.052 340.954 308.238 341.069 308.445C341.183 308.648 341.213 308.866 341.158 309.098C341.099 309.328 340.956 309.563 340.731 309.802C340.51 310.039 340.203 310.271 339.808 310.499C339.228 310.834 338.634 311.059 338.026 311.173C337.414 311.284 336.842 311.307 336.309 311.241C335.776 311.17 335.334 311.034 334.983 310.831L336.362 310.034C336.643 310.178 336.927 310.258 337.215 310.274C337.503 310.285 337.781 310.254 338.05 310.181C338.318 310.104 338.559 310.004 338.772 309.881C339.028 309.732 339.21 309.589 339.317 309.45C339.419 309.309 339.457 309.178 339.429 309.057C339.397 308.934 339.305 308.828 339.151 308.739ZM346.474 306.651C346 306.924 345.495 307.127 344.959 307.259C344.422 307.387 343.879 307.447 343.33 307.44C342.786 307.431 342.253 307.358 341.732 307.222C341.211 307.085 340.731 306.89 340.293 306.637L340.057 306.5C339.555 306.211 339.174 305.907 338.914 305.588C338.653 305.269 338.509 304.951 338.482 304.634C338.45 304.315 338.535 304.009 338.736 303.715C338.938 303.421 339.246 303.154 339.66 302.915C340.118 302.651 340.595 302.464 341.093 302.355C341.59 302.245 342.091 302.207 342.596 302.238C343.102 302.266 343.601 302.358 344.094 302.515C344.591 302.67 345.071 302.881 345.533 303.148L346.143 303.5L341.193 306.357L340.169 305.766L343.709 303.722L343.597 303.657C343.332 303.513 343.04 303.404 342.721 303.329C342.405 303.251 342.083 303.227 341.756 303.257C341.428 303.287 341.106 303.392 340.791 303.575C340.554 303.711 340.394 303.863 340.311 304.029C340.228 304.191 340.22 304.362 340.287 304.542C340.355 304.722 340.489 304.909 340.69 305.103C340.891 305.292 341.158 305.482 341.489 305.673L341.726 305.81C342.006 305.972 342.304 306.101 342.62 306.196C342.936 306.287 343.257 306.341 343.585 306.357C343.913 306.373 344.234 306.349 344.55 306.285C344.862 306.219 345.154 306.107 345.426 305.95C345.77 305.752 346.006 305.535 346.137 305.301C346.267 305.066 346.304 304.819 346.249 304.559L347.729 304.545C347.792 304.741 347.806 304.957 347.771 305.191C347.731 305.424 347.609 305.665 347.404 305.916C347.202 306.164 346.892 306.409 346.474 306.651ZM346.279 300.639L351.465 303.633L350.038 304.457L343.632 300.759L344.994 299.972L346.279 300.639ZM346.977 298.78L348.292 299.552C348.189 299.593 348.082 299.641 347.972 299.696C347.865 299.748 347.763 299.803 347.664 299.86C347.419 300.001 347.24 300.146 347.125 300.294C347.007 300.44 346.95 300.587 346.954 300.735C346.958 300.878 347.017 301.022 347.131 301.165C347.246 301.309 347.409 301.449 347.623 301.586L347.321 301.787C346.918 301.555 346.585 301.317 346.32 301.073C346.056 300.829 345.872 300.587 345.77 300.345C345.671 300.101 345.669 299.868 345.764 299.644C345.862 299.419 346.072 299.214 346.391 299.029C346.478 298.979 346.579 298.93 346.693 298.882C346.812 298.832 346.906 298.798 346.977 298.78ZM355.378 300.068L351.672 296.117L353.152 295.263L357.332 300.246L356.408 300.779L355.378 300.068ZM348.901 297.717L355.798 299.853L356.982 300.448L356.059 300.981L347.415 298.575L348.901 297.717Z"
        fill="white" />
    <g filter="url(#filter0_d_301_22829)">
        <path
            d="M274.082 541.405L251.374 528.295V558.411L251.394 558.399C251.549 560.445 252.979 562.463 255.685 564.025L357 622.515C362.739 625.828 372.045 625.828 377.785 622.515L634.106 474.538C637.032 472.85 638.466 470.626 638.409 468.413L638.428 468.424V438.307L615.281 451.671L532.791 404.049C527.052 400.736 517.746 400.736 512.006 404.049L274.082 541.405Z"
            fill="#285A9F" />
        <path
            d="M273.832 541.838L274.082 541.982L274.332 541.838L512.256 404.482C515.032 402.88 518.702 402.064 522.399 402.064C526.096 402.064 529.765 402.88 532.541 404.482L615.031 452.104L615.281 452.248L615.531 452.104L637.928 439.173V467.561L637.887 467.538L637.909 468.426C637.96 470.391 636.689 472.47 633.856 474.105L377.535 622.082C374.759 623.685 371.089 624.5 367.392 624.5C363.695 624.5 360.025 623.685 357.249 622.082L255.935 563.592L255.685 564.025L255.935 563.592C253.316 562.08 252.031 560.186 251.893 558.362L251.874 558.117V529.161L273.832 541.838Z"
            stroke="url(#paint5_linear_301_22829)" />
    </g>
    <rect x="0.866041" width="318.969" height="139.986" rx="11.5"
        transform="matrix(0.866041 -0.499972 0.866041 0.499972 245.408 528.458)"
        fill="url(#paint6_linear_301_22829)" stroke="url(#paint7_linear_301_22829)" />
    <mask id="mask2_301_22829" style="mask-type:alpha" maskUnits="userSpaceOnUse" x="261" y="371"
        width="378" height="219">
        <rect x="0.866041" width="306.97" height="139.986" rx="11.5"
            transform="matrix(0.866041 -0.499972 0.866041 0.499972 255.8 522.459)" fill="#FFAB91"
            stroke="url(#paint8_linear_301_22829)" />
    </mask>
    <g mask="url(#mask2_301_22829)">
        <path
            d="M390.514 559.154L367.901 596.745L651.824 432.834L641.843 427.072L590.405 420.057C569.802 417.247 549.198 424.708 544.611 436.64L541.219 445.462C537.338 455.557 521.762 462.714 503.85 462.631L471.469 462.482C447.478 462.371 429.326 474.975 433.893 488.572L443.462 517.065C446.348 525.658 440.102 534.419 427.573 539.349L404.996 548.233C398.264 550.882 393.187 554.711 390.514 559.154Z"
            fill="url(#paint9_linear_301_22829)" stroke="url(#paint10_linear_301_22829)" />
        <path
            d="M390.488 559.197L367.901 596.744L650.486 430.82L594.153 420.033C573.273 416.035 550.896 423.085 545.425 435.386L540.332 446.836C535.777 457.078 519.207 463.982 500.935 463.252L474.49 462.195C450.079 461.22 430.468 473.634 434.393 487.578L442.982 518.091C445.355 526.522 439.03 534.98 426.774 539.764L405.087 548.23C398.298 550.88 393.177 554.727 390.488 559.197Z"
            stroke="url(#paint11_linear_301_22829)" />
    </g>
    <path
        d="M479.415 415.342L481.138 416.337L480.197 416.88L478.474 415.886L479.415 415.342ZM488.965 420.992L490.563 421.915L489.622 422.458L488.023 421.535L488.965 420.992ZM487.384 419.621C487.167 419.496 486.954 419.412 486.745 419.369C486.535 419.325 486.302 419.316 486.046 419.341C485.789 419.366 485.484 419.42 485.128 419.502C484.39 419.682 483.707 419.823 483.08 419.926C482.456 420.026 481.862 420.045 481.298 419.984C480.737 419.92 480.189 419.733 479.652 419.423C479.163 419.141 478.857 418.825 478.734 418.476C478.616 418.126 478.671 417.77 478.9 417.41C479.129 417.046 479.524 416.702 480.084 416.378C480.511 416.132 480.962 415.944 481.44 415.814C481.918 415.684 482.405 415.615 482.902 415.606C483.396 415.594 483.885 415.649 484.371 415.77C484.852 415.888 485.312 416.074 485.75 416.327L483.755 417.478C483.53 417.349 483.313 417.251 483.104 417.185C482.898 417.116 482.703 417.076 482.517 417.065C482.332 417.054 482.16 417.066 482.002 417.103C481.841 417.137 481.695 417.191 481.564 417.267C481.367 417.381 481.251 417.498 481.215 417.619C481.176 417.737 481.197 417.852 481.28 417.964C481.363 418.075 481.489 418.18 481.659 418.278C481.837 418.381 482.022 418.454 482.216 418.497C482.409 418.536 482.638 418.545 482.902 418.524C483.163 418.502 483.482 418.449 483.861 418.367C484.592 418.196 485.274 418.062 485.91 417.964C486.545 417.866 487.147 417.849 487.715 417.913C488.284 417.972 488.834 418.155 489.367 418.463C489.88 418.759 490.198 419.081 490.32 419.43C490.439 419.776 490.378 420.128 490.137 420.486C489.896 420.844 489.493 421.186 488.929 421.511C488.55 421.73 488.124 421.919 487.65 422.079C487.181 422.236 486.681 422.34 486.152 422.39C485.624 422.435 485.083 422.404 484.53 422.294C483.978 422.185 483.431 421.974 482.89 421.662L484.886 420.51C485.15 420.663 485.403 420.772 485.643 420.838C485.884 420.904 486.111 420.937 486.324 420.937C486.537 420.933 486.737 420.904 486.922 420.852C487.104 420.797 487.269 420.727 487.419 420.64C487.621 420.524 487.745 420.406 487.792 420.288C487.836 420.167 487.82 420.051 487.745 419.939C487.67 419.823 487.55 419.717 487.384 419.621ZM488.526 411.648L497.146 416.624L495.151 417.776L488.781 414.098L487.39 415.565L485.874 414.69L488.343 411.754L488.526 411.648ZM503.374 410.287C503.923 410.604 504.253 410.945 504.363 411.309C504.477 411.672 504.401 412.037 504.132 412.407C503.868 412.773 503.447 413.123 502.871 413.456C502.299 413.786 501.691 414.03 501.048 414.187C500.408 414.342 499.771 414.389 499.135 414.327C498.5 414.266 497.908 414.077 497.359 413.76C496.984 413.543 496.724 413.307 496.578 413.049C496.432 412.787 496.39 412.517 496.454 412.239C496.517 411.961 496.675 411.685 496.927 411.412C497.184 411.136 497.525 410.875 497.951 410.629C498.528 410.297 499.141 410.056 499.793 409.908C500.44 409.758 501.073 409.711 501.693 409.768C502.313 409.825 502.873 409.998 503.374 410.287ZM501.208 411.354C500.971 411.217 500.73 411.126 500.485 411.08C500.237 411.033 499.994 411.027 499.757 411.063C499.52 411.1 499.301 411.176 499.1 411.292C498.903 411.406 498.77 411.533 498.703 411.672C498.64 411.808 498.648 411.95 498.727 412.095C498.806 412.237 498.964 412.376 499.201 412.512C499.43 412.645 499.672 412.735 499.929 412.782C500.181 412.828 500.428 412.834 500.669 412.8C500.91 412.761 501.131 412.683 501.332 412.567C501.533 412.451 501.663 412.326 501.723 412.191C501.782 412.052 501.768 411.912 501.681 411.771C501.594 411.625 501.436 411.486 501.208 411.354ZM499.254 408.114C499.704 408.374 499.978 408.671 500.077 409.006C500.175 409.336 500.106 409.679 499.87 410.035C499.633 410.385 499.238 410.72 498.686 411.039C498.137 411.356 497.555 411.585 496.939 411.726C496.323 411.863 495.725 411.905 495.145 411.853C494.565 411.796 494.05 411.638 493.6 411.378C493.071 411.072 492.748 410.747 492.629 410.4C492.515 410.052 492.578 409.701 492.819 409.348C493.059 408.994 493.452 408.661 493.997 408.346C494.549 408.027 495.131 407.798 495.743 407.659C496.355 407.52 496.961 407.485 497.561 407.553C498.161 407.622 498.725 407.808 499.254 408.114ZM497.365 409.327C497.16 409.209 496.953 409.125 496.744 409.078C496.531 409.027 496.323 409.015 496.122 409.04C495.917 409.063 495.722 409.128 495.536 409.235C495.358 409.337 495.248 409.447 495.204 409.563C495.161 409.679 495.183 409.799 495.27 409.922C495.352 410.043 495.499 410.163 495.708 410.284C495.913 410.403 496.124 410.488 496.341 410.54C496.558 410.593 496.771 410.609 496.981 410.588C497.194 410.565 497.391 410.502 497.573 410.397C497.758 410.29 497.867 410.177 497.898 410.058C497.934 409.938 497.904 409.816 497.809 409.693C497.719 409.567 497.571 409.446 497.365 409.327ZM503.469 407.034L504.44 406.473C504.689 406.33 504.848 406.187 504.92 406.046C504.991 405.9 504.985 405.758 504.902 405.619C504.815 405.478 504.659 405.342 504.434 405.212C504.26 405.112 504.063 405.041 503.842 405C503.625 404.957 503.398 404.953 503.161 404.99C502.92 405.024 502.684 405.108 502.451 405.243C502.293 405.334 502.173 405.442 502.09 405.568C502.003 405.691 501.969 405.815 501.989 405.94C502.013 406.063 502.109 406.174 502.279 406.272L500.278 407.427C499.789 407.144 499.505 406.825 499.426 406.47C499.347 406.11 499.435 405.749 499.692 405.386C499.949 405.02 500.333 404.688 500.846 404.392C501.458 404.039 502.09 403.783 502.741 403.626C503.388 403.467 504.024 403.419 504.647 403.483C505.271 403.542 505.851 403.726 506.388 404.036C506.684 404.207 506.893 404.408 507.015 404.638C507.138 404.868 507.173 405.112 507.122 405.369C507.071 405.627 506.934 405.885 506.713 406.145C506.492 406.4 506.184 406.642 505.79 406.87L504.487 407.622L503.469 407.034ZM504.955 407.892L503.96 407.317L505.263 406.566C505.693 406.317 506.135 406.119 506.589 405.971C507.039 405.82 507.487 405.726 507.933 405.687C508.379 405.648 508.811 405.67 509.229 405.752C509.644 405.832 510.031 405.975 510.39 406.183C510.792 406.415 511.071 406.669 511.225 406.945C511.378 407.221 511.418 407.505 511.343 407.799C511.268 408.093 511.092 408.386 510.816 408.678C510.536 408.967 510.167 409.244 509.709 409.508C509.35 409.716 508.943 409.896 508.489 410.048C508.032 410.199 507.554 410.301 507.057 410.356C506.555 410.408 506.056 410.396 505.559 410.318C505.062 410.236 504.592 410.068 504.15 409.812L506.151 408.657C506.332 408.762 506.548 408.829 506.796 408.859C507.045 408.884 507.297 408.873 507.554 408.825C507.811 408.777 508.038 408.696 508.235 408.582C508.48 408.441 508.641 408.295 508.72 408.145C508.799 407.99 508.805 407.84 508.738 407.697C508.671 407.553 508.541 407.426 508.347 407.314C508.055 407.145 507.773 407.039 507.501 406.996C507.232 406.951 506.966 406.959 506.702 407.02C506.441 407.079 506.183 407.183 505.926 407.331L504.955 407.892ZM513.61 405.41L513.729 405.342C514.123 405.114 514.435 404.884 514.664 404.652C514.893 404.419 515.029 404.186 515.073 403.951C515.112 403.714 515.045 403.477 514.871 403.24C514.698 402.998 514.402 402.757 513.983 402.515L512.201 401.487C511.925 401.327 511.663 401.203 511.414 401.114C511.161 401.023 510.923 400.965 510.698 400.94C510.473 400.915 510.265 400.92 510.076 400.957C509.883 400.991 509.707 401.054 509.549 401.145C509.391 401.236 509.297 401.343 509.265 401.466C509.233 401.585 509.249 401.712 509.312 401.849C509.375 401.981 509.478 402.113 509.62 402.245C509.758 402.375 509.92 402.494 510.106 402.601C510.315 402.722 510.532 402.822 510.757 402.902C510.982 402.977 511.205 403.028 511.426 403.055C511.647 403.078 511.862 403.073 512.071 403.038C512.284 403.002 512.482 402.931 512.663 402.826C512.845 402.722 512.969 402.613 513.036 402.502C513.103 402.386 513.127 402.272 513.107 402.16C513.083 402.046 513.028 401.941 512.941 401.846C512.859 401.748 512.754 401.664 512.628 401.596L513.664 401.524C513.916 401.67 514.108 401.847 514.238 402.054C514.368 402.261 514.433 402.481 514.433 402.714C514.429 402.944 514.354 403.169 514.208 403.39C514.066 403.609 513.849 403.803 513.557 403.971C513.166 404.197 512.744 404.361 512.29 404.464C511.84 404.564 511.377 404.604 510.899 404.583C510.421 404.563 509.946 404.484 509.472 404.347C508.999 404.206 508.543 404.009 508.105 403.756C507.682 403.512 507.359 403.241 507.134 402.943C506.909 402.644 506.79 402.337 506.778 402.02C506.763 401.701 506.857 401.389 507.063 401.083C507.268 400.778 507.59 400.499 508.028 400.246C508.442 400.007 508.91 399.828 509.431 399.709C509.948 399.589 510.494 399.535 511.071 399.549C511.647 399.562 512.233 399.65 512.829 399.812C513.425 399.974 514.005 400.218 514.569 400.543L515.256 400.94C515.868 401.293 516.346 401.655 516.689 402.027C517.032 402.398 517.253 402.772 517.352 403.148C517.447 403.521 517.431 403.891 517.305 404.255C517.178 404.615 516.949 404.964 516.618 405.301C516.29 405.636 515.872 405.95 515.363 406.244L515.209 406.333L513.61 405.41ZM520.087 402.3C519.803 402.136 519.669 401.94 519.685 401.712C519.696 401.482 519.864 401.274 520.188 401.087C520.515 400.898 520.876 400.801 521.271 400.796C521.666 400.787 522.005 400.865 522.289 401.029C522.574 401.193 522.71 401.39 522.698 401.62C522.686 401.846 522.516 402.053 522.189 402.242C521.865 402.429 521.506 402.527 521.111 402.536C520.713 402.543 520.371 402.464 520.087 402.3ZM525.421 394.415L526.996 395.324C527.616 395.682 528.081 396.035 528.393 396.384C528.709 396.73 528.883 397.068 528.914 397.396C528.95 397.721 528.857 398.032 528.636 398.329C528.415 398.625 528.083 398.901 527.641 399.156C527.286 399.361 526.909 399.526 526.511 399.651C526.108 399.774 525.688 399.853 525.25 399.887C524.811 399.917 524.36 399.9 523.894 399.836C523.428 399.772 522.952 399.655 522.467 399.484C521.978 399.311 521.484 399.081 520.987 398.793L519.412 397.884C518.789 397.524 518.321 397.172 518.009 396.828C517.697 396.48 517.526 396.141 517.494 395.813C517.462 395.485 517.557 395.173 517.778 394.877C517.999 394.581 518.331 394.305 518.773 394.05C519.128 393.845 519.505 393.682 519.904 393.561C520.302 393.436 520.723 393.357 521.165 393.325C521.603 393.291 522.053 393.307 522.514 393.373C522.98 393.437 523.458 393.555 523.947 393.728C524.433 393.899 524.924 394.128 525.421 394.415ZM525.244 396.616L523.172 395.42C522.895 395.261 522.639 395.131 522.402 395.031C522.169 394.928 521.952 394.853 521.751 394.805C521.553 394.755 521.37 394.729 521.2 394.726C521.026 394.722 520.867 394.739 520.721 394.778C520.575 394.812 520.438 394.865 520.312 394.938C520.154 395.029 520.046 395.131 519.986 395.242C519.927 395.35 519.925 395.469 519.981 395.601C520.036 395.733 520.158 395.882 520.348 396.046C520.541 396.207 520.809 396.387 521.153 396.586L523.225 397.782C523.505 397.944 523.764 398.077 524 398.182C524.237 398.282 524.456 398.358 524.657 398.411C524.859 398.459 525.046 398.485 525.22 398.489C525.39 398.492 525.548 398.473 525.694 398.435C525.84 398.396 525.976 398.34 526.102 398.267C526.256 398.178 526.363 398.08 526.422 397.973C526.481 397.866 526.483 397.747 526.428 397.614C526.372 397.478 526.248 397.328 526.055 397.167C525.861 397 525.591 396.817 525.244 396.616ZM500.441 424.836L502.016 425.745C502.636 426.102 503.101 426.456 503.413 426.804C503.729 427.15 503.903 427.488 503.934 427.816C503.97 428.142 503.877 428.453 503.656 428.749C503.435 429.045 503.103 429.321 502.661 429.576C502.306 429.781 501.929 429.946 501.531 430.072C501.128 430.195 500.708 430.273 500.27 430.307C499.832 430.337 499.38 430.32 498.914 430.256C498.448 430.192 497.973 430.075 497.487 429.904C496.998 429.731 496.504 429.501 496.007 429.214L494.432 428.305C493.809 427.945 493.341 427.593 493.029 427.248C492.717 426.9 492.546 426.561 492.514 426.233C492.483 425.905 492.577 425.593 492.798 425.297C493.019 425.001 493.351 424.725 493.793 424.47C494.148 424.265 494.525 424.102 494.924 423.981C495.322 423.856 495.743 423.777 496.185 423.745C496.623 423.711 497.073 423.727 497.535 423.793C498 423.857 498.478 423.975 498.967 424.149C499.453 424.319 499.944 424.548 500.441 424.836ZM500.264 427.037L498.192 425.84C497.915 425.681 497.659 425.551 497.422 425.451C497.189 425.348 496.972 425.273 496.771 425.225C496.573 425.175 496.39 425.149 496.22 425.147C496.047 425.142 495.887 425.159 495.741 425.198C495.595 425.232 495.458 425.286 495.332 425.358C495.174 425.45 495.066 425.551 495.007 425.663C494.947 425.77 494.945 425.889 495.001 426.021C495.056 426.154 495.178 426.302 495.368 426.466C495.561 426.628 495.829 426.808 496.173 427.006L498.245 428.202C498.525 428.364 498.784 428.497 499.02 428.602C499.257 428.702 499.476 428.778 499.678 428.831C499.879 428.879 500.066 428.905 500.24 428.91C500.41 428.912 500.568 428.894 500.714 428.855C500.86 428.816 500.996 428.76 501.122 428.687C501.276 428.598 501.383 428.501 501.442 428.393C501.501 428.286 501.503 428.167 501.448 428.035C501.393 427.898 501.268 427.749 501.075 427.587C500.881 427.42 500.611 427.237 500.264 427.037Z"
        fill="white" />
    <path
        d="M302.181 540.599L309.61 544.887L308.671 545.429L302.414 541.817L301.211 543.308L300.364 542.819L302.034 540.684L302.181 540.599ZM312.725 538.144L313.852 538.794C314.457 539.144 314.914 539.47 315.222 539.773C315.53 540.075 315.709 540.358 315.76 540.622C315.811 540.886 315.75 541.134 315.577 541.366C315.405 541.595 315.139 541.812 314.781 542.019C314.496 542.184 314.199 542.314 313.887 542.412C313.576 542.51 313.246 542.569 312.898 542.591C312.549 542.608 312.181 542.583 311.792 542.515C311.403 542.446 310.992 542.328 310.559 542.16C310.126 541.992 309.667 541.768 309.183 541.489L308.057 540.839C307.451 540.489 306.998 540.165 306.697 539.866C306.399 539.565 306.228 539.285 306.184 539.025C306.137 538.764 306.201 538.52 306.377 538.293C306.557 538.065 306.824 537.848 307.179 537.643C307.467 537.477 307.766 537.345 308.077 537.247C308.388 537.146 308.715 537.084 309.057 537.063C309.395 537.039 309.755 537.062 310.137 537.13C310.52 537.195 310.926 537.31 311.355 537.476C311.785 537.642 312.242 537.864 312.725 538.144ZM313.06 539.427L311.624 538.598C311.293 538.406 310.981 538.25 310.691 538.129C310.4 538.004 310.127 537.911 309.874 537.851C309.62 537.79 309.38 537.761 309.153 537.763C308.93 537.763 308.718 537.791 308.519 537.848C308.319 537.901 308.128 537.98 307.945 538.085C307.722 538.214 307.566 538.353 307.478 538.501C307.387 538.648 307.372 538.807 307.433 538.979C307.497 539.149 307.644 539.335 307.874 539.538C308.104 539.741 308.427 539.963 308.843 540.203L310.28 541.032C310.611 541.224 310.922 541.382 311.213 541.507C311.508 541.63 311.787 541.723 312.05 541.785C312.311 541.846 312.556 541.878 312.786 541.882C313.016 541.886 313.233 541.862 313.436 541.811C313.639 541.757 313.83 541.678 314.009 541.574C314.239 541.441 314.397 541.3 314.481 541.149C314.566 540.999 314.572 540.837 314.501 540.663C314.43 540.485 314.276 540.295 314.04 540.092C313.799 539.887 313.473 539.665 313.06 539.427ZM312.558 536.746L312.167 536.521C311.886 536.359 311.692 536.176 311.584 535.973C311.475 535.77 311.465 535.563 311.553 535.352C311.641 535.141 311.841 534.946 312.152 534.766C312.47 534.582 312.81 534.466 313.172 534.417C313.537 534.367 313.896 534.372 314.248 534.435C314.6 534.497 314.916 534.61 315.197 534.772L315.587 534.997C315.861 535.156 316.053 535.336 316.161 535.539C316.272 535.74 316.284 535.947 316.196 536.157C316.112 536.366 315.912 536.562 315.598 536.743C315.283 536.925 314.941 537.042 314.572 537.095C314.207 537.146 313.849 537.14 313.497 537.077C313.145 537.015 312.832 536.904 312.558 536.746ZM312.873 536.114L313.263 536.339C313.419 536.429 313.595 536.497 313.791 536.544C313.991 536.589 314.195 536.602 314.405 536.582C314.611 536.561 314.806 536.497 314.989 536.392C315.171 536.286 315.28 536.175 315.313 536.058C315.344 535.939 315.318 535.823 315.237 535.709C315.156 535.596 315.038 535.494 314.882 535.405L314.491 535.179C314.332 535.087 314.153 535.019 313.953 534.974C313.754 534.925 313.551 534.911 313.344 534.933C313.138 534.951 312.944 535.012 312.761 535.117C312.582 535.221 312.475 535.333 312.441 535.454C312.407 535.572 312.431 535.689 312.512 535.806C312.593 535.919 312.714 536.022 312.873 536.114ZM320.317 537.071L319.921 536.843C319.644 536.683 319.451 536.501 319.342 536.298C319.234 536.095 319.224 535.888 319.312 535.677C319.4 535.466 319.6 535.271 319.911 535.091C320.229 534.908 320.569 534.791 320.931 534.743C321.296 534.692 321.655 534.698 322.007 534.76C322.358 534.823 322.673 534.934 322.95 535.094L323.346 535.323C323.624 535.483 323.816 535.664 323.925 535.867C324.036 536.069 324.048 536.275 323.96 536.486C323.876 536.695 323.676 536.89 323.361 537.071C323.047 537.253 322.707 537.369 322.341 537.42C321.976 537.471 321.616 537.466 321.261 537.405C320.909 537.343 320.594 537.232 320.317 537.071ZM320.626 536.436L321.022 536.664C321.178 536.754 321.355 536.823 321.555 536.872C321.755 536.917 321.959 536.93 322.169 536.91C322.375 536.889 322.57 536.825 322.753 536.72C322.935 536.614 323.043 536.503 323.077 536.386C323.111 536.265 323.087 536.148 323.006 536.034C322.925 535.921 322.805 535.819 322.646 535.727L322.25 535.498C322.091 535.407 321.912 535.338 321.712 535.293C321.516 535.246 321.315 535.234 321.108 535.255C320.902 535.273 320.706 535.335 320.52 535.443C320.34 535.546 320.234 535.658 320.2 535.78C320.166 535.897 320.188 536.013 320.266 536.128C320.347 536.241 320.467 536.344 320.626 536.436ZM317.14 533.222L319.307 538.639L318.444 538.75L316.278 533.333L317.14 533.222ZM328.477 530.65L326.503 531.79L325.706 531.33L327.68 530.19C328.062 529.969 328.311 529.755 328.426 529.548C328.541 529.341 328.544 529.144 328.436 528.957C328.331 528.767 328.14 528.592 327.863 528.432C327.609 528.286 327.314 528.18 326.98 528.116C326.648 528.05 326.296 528.046 325.924 528.104C325.549 528.161 325.17 528.3 324.787 528.52L323.042 529.528L329.628 533.33L328.649 533.896L321.261 529.63L323.986 528.057C324.544 527.735 325.112 527.518 325.691 527.407C326.269 527.296 326.829 527.281 327.37 527.363C327.908 527.443 328.395 527.609 328.832 527.861C329.305 528.134 329.61 528.425 329.745 528.734C329.88 529.043 329.843 529.359 329.633 529.683C329.42 530.005 329.035 530.328 328.477 530.65ZM331.374 526.979L336.002 529.651L335.063 530.193L329.573 527.023L330.486 526.496L331.374 526.979ZM332.196 525.473L333.064 525.98C332.969 526.015 332.885 526.053 332.81 526.092C332.736 526.127 332.654 526.17 332.567 526.221C332.35 526.346 332.193 526.475 332.095 526.61C331.997 526.745 331.951 526.881 331.958 527.017C331.964 527.154 332.018 527.291 332.12 527.427C332.221 527.56 332.362 527.69 332.541 527.817L332.43 528.057C332.098 527.866 331.819 527.668 331.592 527.463C331.369 527.256 331.215 527.048 331.13 526.839C331.043 526.628 331.043 526.425 331.13 526.229C331.218 526.03 331.411 525.845 331.709 525.673C331.777 525.634 331.863 525.594 331.968 525.553C332.069 525.51 332.145 525.483 332.196 525.473ZM335.55 526.812L335.434 526.745C335.038 526.516 334.728 526.271 334.505 526.01C334.278 525.746 334.148 525.479 334.114 525.21C334.077 524.938 334.143 524.674 334.312 524.416C334.478 524.156 334.752 523.916 335.134 523.695C335.52 523.473 335.938 523.313 336.388 523.218C336.838 523.118 337.298 523.079 337.768 523.101C338.238 523.118 338.702 523.192 339.158 523.323C339.612 523.452 340.036 523.631 340.432 523.859L340.549 523.927C340.944 524.155 341.254 524.4 341.477 524.662C341.701 524.924 341.829 525.191 341.863 525.465C341.897 525.734 341.831 525.999 341.665 526.259C341.499 526.514 341.224 526.754 340.838 526.976C340.452 527.199 340.036 527.359 339.59 527.457C339.14 527.552 338.68 527.592 338.209 527.574C337.739 527.552 337.277 527.477 336.824 527.348C336.371 527.219 335.946 527.041 335.55 526.812ZM336.372 526.203L336.489 526.27C336.763 526.429 337.054 526.559 337.362 526.663C337.666 526.764 337.976 526.832 338.291 526.865C338.609 526.896 338.92 526.886 339.224 526.836C339.525 526.783 339.806 526.681 340.067 526.531C340.324 526.383 340.496 526.222 340.584 526.051C340.672 525.875 340.687 525.696 340.63 525.514C340.572 525.333 340.456 525.154 340.28 524.978C340.104 524.799 339.879 524.63 339.605 524.472L339.488 524.404C339.217 524.248 338.928 524.12 338.62 524.02C338.313 523.917 338 523.85 337.682 523.818C337.364 523.783 337.052 523.791 336.748 523.842C336.447 523.891 336.166 523.99 335.906 524.141C335.648 524.289 335.476 524.451 335.388 524.627C335.303 524.801 335.29 524.98 335.347 525.166C335.405 525.348 335.523 525.527 335.703 525.705C335.878 525.881 336.102 526.047 336.372 526.203ZM345.664 524.073L344.725 524.615L338.757 521.17C338.341 520.93 338.071 520.68 337.945 520.42C337.82 520.16 337.834 519.901 337.986 519.641C338.138 519.381 338.421 519.132 338.833 518.894C339.077 518.753 339.346 518.633 339.64 518.533C339.931 518.432 340.244 518.335 340.579 518.243L341.213 518.791C340.997 518.846 340.758 518.917 340.498 519.005C340.237 519.089 339.985 519.201 339.742 519.342C339.339 519.574 339.14 519.795 339.143 520.004C339.146 520.209 339.331 520.417 339.696 520.628L345.664 524.073ZM341.295 520.256L342.015 520.672L339.087 522.362L338.367 521.946L341.295 520.256ZM343.142 519.19L348.632 522.359L347.694 522.901L342.203 519.732L343.142 519.19ZM346.983 516.972L347.704 517.388L344.735 519.102L344.015 518.686L346.983 516.972ZM343.685 517.335L344.623 516.793L350.089 519.948C350.275 520.056 350.444 520.12 350.596 520.142C350.748 520.163 350.885 520.156 351.007 520.121C351.129 520.086 351.242 520.038 351.347 519.978C351.425 519.933 351.499 519.882 351.57 519.825C351.641 519.765 351.694 519.719 351.728 519.688L352.499 520.127C352.448 520.184 352.372 520.253 352.271 520.335C352.176 520.417 352.044 520.507 351.875 520.605C351.645 520.737 351.388 520.833 351.104 520.892C350.819 520.95 350.513 520.951 350.185 520.895C349.857 520.834 349.51 520.698 349.145 520.487L343.685 517.335Z"
        fill="#FBE9E7" />
    <path
        d="M286.207 530.904L284.01 532.172L282.915 531.554L284.833 530.446C285.157 530.259 285.384 530.074 285.514 529.889C285.644 529.7 285.678 529.519 285.615 529.346C285.548 529.17 285.384 529.007 285.123 528.857C284.835 528.691 284.545 528.587 284.253 528.546C283.961 528.505 283.659 528.527 283.347 528.611C283.039 528.693 282.71 528.835 282.359 529.038L280.92 529.869L288.356 534.161L286.87 535.019L278.25 530.043L281.175 528.354C281.648 528.081 282.116 527.863 282.578 527.702C283.043 527.538 283.503 527.436 283.957 527.397C284.411 527.354 284.851 527.378 285.277 527.469C285.707 527.558 286.124 527.719 286.526 527.951C286.882 528.156 287.122 528.393 287.249 528.662C287.371 528.929 287.359 529.211 287.213 529.51C287.067 529.808 286.765 530.11 286.307 530.415L286.207 530.904ZM290.037 533.191L287.438 534.691L286.929 533.625L288.859 532.51C289.194 532.317 289.419 532.123 289.534 531.929C289.644 531.734 289.656 531.547 289.569 531.369C289.483 531.187 289.305 531.018 289.037 530.863C288.756 530.701 288.464 530.59 288.16 530.528C287.852 530.464 287.537 530.462 287.213 530.521C286.886 530.578 286.55 530.706 286.207 530.904L284.537 531.868L283.466 531.236L285.638 529.981L286.384 530.022C286.874 529.758 287.367 529.594 287.864 529.53C288.366 529.464 288.845 529.477 289.303 529.568C289.761 529.659 290.167 529.807 290.523 530.012C291.071 530.329 291.411 530.664 291.541 531.017C291.675 531.368 291.616 531.728 291.363 532.097C291.107 532.464 290.665 532.828 290.037 533.191ZM296.715 527.852L293.66 526.088C293.431 525.956 293.193 525.866 292.944 525.818C292.695 525.771 292.441 525.769 292.18 525.815C291.924 525.858 291.669 525.953 291.416 526.099C291.184 526.233 291.022 526.372 290.931 526.516C290.84 526.659 290.815 526.797 290.854 526.929C290.894 527.061 290.998 527.176 291.168 527.274L289.747 528.095C289.494 527.949 289.311 527.772 289.196 527.565C289.082 527.358 289.048 527.133 289.096 526.892C289.143 526.65 289.275 526.405 289.492 526.157C289.709 525.908 290.019 525.668 290.422 525.436C290.903 525.158 291.411 524.958 291.943 524.838C292.48 524.715 293.019 524.686 293.56 524.752C294.1 524.814 294.615 524.986 295.105 525.268L297.952 526.912C298.244 527.081 298.527 527.221 298.799 527.333C299.071 527.44 299.332 527.519 299.58 527.572L299.675 527.626L298.213 528.471C297.992 528.421 297.743 528.339 297.467 528.225C297.191 528.106 296.94 527.982 296.715 527.852ZM294.311 526.225L295.205 526.728L294.181 527.319C293.917 527.472 293.71 527.621 293.56 527.767C293.406 527.91 293.309 528.048 293.269 528.18C293.23 528.312 293.244 528.437 293.311 528.553C293.378 528.669 293.496 528.776 293.666 528.874C293.836 528.972 294.031 529.039 294.252 529.076C294.469 529.11 294.692 529.106 294.921 529.065C295.154 529.022 295.379 528.938 295.596 528.812C295.888 528.644 296.084 528.463 296.182 528.269C296.281 528.071 296.307 527.885 296.259 527.712C296.208 527.536 296.107 527.401 295.957 527.305L297.052 527.404C297.167 527.525 297.26 527.672 297.331 527.845C297.402 528.018 297.429 528.208 297.414 528.413C297.398 528.613 297.315 528.818 297.165 529.028C297.019 529.235 296.78 529.434 296.449 529.626C296.03 529.867 295.574 530.035 295.081 530.128C294.584 530.219 294.1 530.237 293.631 530.18C293.157 530.12 292.739 529.986 292.376 529.776C292.036 529.58 291.799 529.371 291.665 529.147C291.531 528.92 291.499 528.683 291.57 528.437C291.645 528.188 291.819 527.933 292.091 527.671C292.36 527.407 292.727 527.14 293.193 526.871L294.311 526.225ZM294.59 523.166L296.022 522.339L302.985 526.358C303.423 526.611 303.717 526.868 303.867 527.127C304.021 527.39 304.028 527.649 303.89 527.907C303.756 528.166 303.478 528.418 303.056 528.662C302.929 528.735 302.789 528.804 302.635 528.871C302.481 528.941 302.327 529.003 302.173 529.055L301.066 528.409C301.165 528.37 301.266 528.326 301.368 528.276C301.471 528.23 301.564 528.184 301.647 528.136C301.816 528.038 301.929 527.939 301.984 527.838C302.039 527.738 302.033 527.634 301.966 527.527C301.899 527.42 301.761 527.306 301.552 527.186L294.59 523.166ZM292.784 522.267C292.567 522.142 292.46 521.996 292.464 521.83C292.464 521.661 292.591 521.504 292.843 521.358C293.1 521.21 293.372 521.137 293.66 521.14C293.948 521.137 294.201 521.199 294.418 521.324C294.631 521.447 294.736 521.592 294.732 521.758C294.732 521.922 294.604 522.078 294.347 522.226C294.094 522.372 293.824 522.446 293.536 522.449C293.248 522.451 292.997 522.39 292.784 522.267ZM306.294 522.322L303.239 520.559C303.01 520.426 302.771 520.336 302.523 520.289C302.274 520.241 302.02 520.24 301.759 520.285C301.503 520.328 301.248 520.423 300.995 520.569C300.762 520.703 300.601 520.842 300.51 520.986C300.419 521.129 300.393 521.267 300.433 521.399C300.472 521.531 300.577 521.647 300.747 521.744L299.326 522.565C299.073 522.419 298.89 522.242 298.775 522.035C298.661 521.828 298.627 521.603 298.675 521.362C298.722 521.12 298.854 520.875 299.071 520.627C299.288 520.379 299.598 520.138 300.001 519.906C300.482 519.628 300.989 519.428 301.522 519.308C302.059 519.185 302.598 519.156 303.138 519.222C303.679 519.284 304.194 519.456 304.684 519.738L307.531 521.382C307.823 521.551 308.106 521.691 308.378 521.803C308.65 521.91 308.911 521.989 309.159 522.042L309.254 522.097L307.792 522.941C307.571 522.891 307.322 522.809 307.046 522.695C306.77 522.576 306.519 522.452 306.294 522.322ZM303.89 520.695L304.784 521.198L303.76 521.789C303.496 521.942 303.288 522.091 303.138 522.237C302.985 522.38 302.888 522.518 302.848 522.65C302.809 522.782 302.823 522.907 302.89 523.023C302.957 523.139 303.075 523.246 303.245 523.344C303.415 523.442 303.61 523.509 303.831 523.546C304.048 523.58 304.271 523.576 304.5 523.535C304.733 523.492 304.958 523.408 305.175 523.282C305.467 523.114 305.662 522.933 305.761 522.739C305.86 522.541 305.885 522.355 305.838 522.182C305.787 522.007 305.686 521.871 305.536 521.775L306.631 521.874C306.746 521.995 306.839 522.142 306.91 522.315C306.981 522.488 307.008 522.678 306.993 522.883C306.977 523.083 306.894 523.288 306.744 523.498C306.598 523.705 306.359 523.905 306.028 524.096C305.609 524.337 305.153 524.505 304.66 524.598C304.163 524.689 303.679 524.707 303.21 524.65C302.736 524.59 302.318 524.456 301.954 524.246C301.615 524.05 301.378 523.841 301.244 523.617C301.11 523.39 301.078 523.153 301.149 522.907C301.224 522.658 301.398 522.403 301.67 522.141C301.939 521.877 302.306 521.61 302.771 521.341L303.89 520.695ZM304.169 517.636L305.601 516.809L312.563 520.829C313.002 521.081 313.296 521.338 313.446 521.598C313.599 521.86 313.607 522.119 313.469 522.377C313.335 522.637 313.057 522.888 312.634 523.132C312.508 523.205 312.368 523.275 312.214 523.341C312.06 523.411 311.906 523.473 311.752 523.525L310.645 522.879C310.744 522.84 310.845 522.796 310.947 522.746C311.05 522.7 311.143 522.654 311.225 522.606C311.395 522.508 311.508 522.409 311.563 522.308C311.618 522.208 311.612 522.104 311.545 521.997C311.478 521.89 311.34 521.776 311.131 521.656L304.169 517.636ZM302.363 516.737C302.146 516.612 302.039 516.466 302.043 516.3C302.043 516.131 302.17 515.974 302.422 515.828C302.679 515.68 302.951 515.607 303.239 515.61C303.527 515.607 303.78 515.669 303.997 515.794C304.21 515.917 304.315 516.062 304.311 516.228C304.311 516.392 304.182 516.548 303.926 516.696C303.673 516.842 303.403 516.916 303.115 516.919C302.827 516.921 302.576 516.86 302.363 516.737ZM309.574 511.959L318.194 516.936L316.708 517.794L308.088 512.817L309.574 511.959ZM316.861 512.106L318.04 512.786L314.144 515.035L312.966 514.355L316.861 512.106ZM313.582 509.646L314.766 510.329L310.379 512.862L309.195 512.178L313.582 509.646ZM318.365 509.44L324.771 513.139L323.338 513.966L316.933 510.268L318.365 509.44ZM315.156 509.352C314.939 509.226 314.831 509.082 314.831 508.918C314.831 508.749 314.959 508.591 315.216 508.442C315.468 508.297 315.741 508.224 316.033 508.224C316.321 508.221 316.573 508.283 316.79 508.408C317.004 508.531 317.108 508.676 317.104 508.842C317.1 509.009 316.972 509.165 316.719 509.311C316.463 509.459 316.191 509.534 315.902 509.536C315.618 509.536 315.37 509.475 315.156 509.352ZM322.711 508.511L327.749 511.419L326.322 512.243L319.916 508.545L321.26 507.769L322.711 508.511ZM324.055 509.581L323.587 509.844C323.137 509.579 322.784 509.303 322.527 509.013C322.275 508.722 322.123 508.433 322.071 508.149C322.024 507.861 322.083 507.586 322.249 507.321C322.411 507.055 322.683 506.811 323.066 506.59C323.374 506.412 323.695 506.277 324.031 506.183C324.366 506.085 324.718 506.04 325.085 506.047C325.456 506.051 325.84 506.114 326.239 506.235C326.634 506.353 327.05 506.539 327.488 506.792L331.626 509.181L330.194 510.008L326.05 507.615C325.742 507.438 325.454 507.324 325.185 507.274C324.917 507.219 324.66 507.219 324.416 507.274C324.171 507.324 323.924 507.421 323.676 507.564C323.431 507.705 323.263 507.861 323.172 508.032C323.082 508.203 323.058 508.379 323.101 508.559C323.149 508.736 323.253 508.913 323.415 509.088C323.577 509.264 323.79 509.428 324.055 509.581ZM334.942 505.264C334.8 505.182 334.636 505.128 334.45 505.103C334.261 505.076 334.018 505.093 333.722 505.155C333.43 505.214 333.051 505.332 332.586 505.51C332.171 505.663 331.771 505.791 331.384 505.896C330.997 505.996 330.628 506.061 330.277 506.091C329.925 506.121 329.592 506.108 329.276 506.053C328.96 505.999 328.668 505.894 328.4 505.739C328.139 505.589 327.95 505.413 327.832 505.213C327.713 505.012 327.672 504.799 327.707 504.574C327.743 504.348 327.861 504.118 328.063 503.883C328.268 503.646 328.56 503.418 328.939 503.2C329.475 502.89 330.026 502.677 330.59 502.56C331.155 502.44 331.694 502.409 332.207 502.468C332.716 502.525 333.162 502.664 333.545 502.885L332.118 503.709C331.948 503.611 331.747 503.545 331.514 503.511C331.281 503.472 331.034 503.475 330.774 503.521C330.51 503.564 330.249 503.66 329.993 503.808C329.748 503.949 329.584 504.089 329.501 504.228C329.418 504.363 329.399 504.488 329.442 504.604C329.489 504.718 329.586 504.817 329.732 504.902C329.839 504.963 329.955 505.008 330.081 505.035C330.208 505.058 330.356 505.061 330.525 505.045C330.691 505.027 330.888 504.986 331.117 504.922C331.35 504.856 331.625 504.764 331.94 504.645C332.532 504.422 333.085 504.256 333.598 504.146C334.111 504.032 334.589 503.994 335.031 504.03C335.469 504.064 335.879 504.192 336.262 504.413C336.546 504.577 336.745 504.763 336.86 504.97C336.974 505.173 337.004 505.39 336.949 505.623C336.89 505.853 336.747 506.088 336.522 506.327C336.301 506.564 335.994 506.796 335.599 507.024C335.019 507.359 334.425 507.583 333.817 507.697C333.205 507.809 332.633 507.832 332.1 507.766C331.567 507.695 331.125 507.558 330.774 507.356L332.153 506.559C332.434 506.703 332.718 506.783 333.006 506.799C333.294 506.81 333.572 506.779 333.841 506.706C334.109 506.629 334.35 506.529 334.563 506.405C334.819 506.257 335.001 506.114 335.108 505.975C335.21 505.834 335.248 505.703 335.22 505.582C335.188 505.459 335.096 505.353 334.942 505.264ZM342.265 503.176C341.791 503.449 341.286 503.652 340.75 503.784C340.213 503.912 339.67 503.972 339.121 503.965C338.577 503.956 338.044 503.883 337.523 503.746C337.002 503.61 336.522 503.415 336.084 503.162L335.848 503.025C335.346 502.736 334.965 502.432 334.705 502.113C334.445 501.794 334.3 501.476 334.273 501.159C334.241 500.84 334.326 500.534 334.527 500.24C334.729 499.946 335.037 499.679 335.451 499.44C335.909 499.176 336.386 498.989 336.884 498.88C337.381 498.77 337.882 498.731 338.387 498.763C338.893 498.791 339.392 498.883 339.885 499.04C340.382 499.195 340.862 499.406 341.324 499.672L341.934 500.024L336.984 502.882L335.96 502.29L339.5 500.247L339.388 500.182C339.123 500.038 338.831 499.929 338.512 499.854C338.196 499.776 337.874 499.752 337.547 499.782C337.219 499.811 336.897 499.917 336.582 500.1C336.345 500.236 336.185 500.388 336.102 500.554C336.019 500.716 336.011 500.887 336.078 501.067C336.146 501.247 336.28 501.434 336.481 501.627C336.682 501.817 336.949 502.007 337.28 502.198L337.517 502.335C337.797 502.497 338.095 502.625 338.411 502.721C338.727 502.812 339.048 502.866 339.376 502.882C339.704 502.898 340.025 502.874 340.341 502.81C340.653 502.744 340.945 502.632 341.217 502.475C341.561 502.277 341.797 502.06 341.928 501.826C342.058 501.591 342.095 501.344 342.04 501.084L343.52 501.07C343.583 501.266 343.597 501.482 343.562 501.716C343.522 501.949 343.4 502.19 343.195 502.441C342.993 502.689 342.683 502.934 342.265 503.176ZM342.07 497.164L347.256 500.158L345.829 500.981L339.423 497.283L340.785 496.497L342.07 497.164ZM342.768 495.305L344.083 496.077C343.98 496.118 343.873 496.166 343.763 496.221C343.656 496.273 343.554 496.328 343.455 496.385C343.21 496.526 343.031 496.671 342.916 496.819C342.798 496.964 342.741 497.111 342.745 497.26C342.749 497.403 342.808 497.547 342.922 497.69C343.037 497.834 343.2 497.974 343.414 498.111L343.112 498.312C342.709 498.08 342.376 497.842 342.111 497.598C341.847 497.354 341.663 497.111 341.561 496.87C341.462 496.626 341.46 496.393 341.555 496.169C341.653 495.944 341.863 495.739 342.182 495.554C342.269 495.504 342.37 495.455 342.484 495.407C342.603 495.357 342.697 495.323 342.768 495.305ZM351.169 496.593L347.463 492.642L348.943 491.788L353.123 496.771L352.199 497.304L351.169 496.593ZM344.692 494.242L351.589 496.378L352.773 496.972L351.85 497.506L343.206 495.099L344.692 494.242Z"
        fill="white" />
    <rect width="129.927" height="129.116"
        transform="matrix(0.866041 -0.499972 0.866041 0.499972 659.829 847.96)"
        fill="url(#paint12_linear_301_22829)" fill-opacity="0.3" />
    <rect width="120.281" height="119.529"
        transform="matrix(0.866041 -0.499972 0.866041 0.499972 668.131 852.753)"
        fill="url(#paint13_linear_301_22829)" fill-opacity="0.7" />
    <defs>
        <filter id="filter0_d_301_22829" x="167.374" y="381.564" width="555.054" height="391.436"
            filterUnits="userSpaceOnUse" color-interpolation-filters="sRGB">
            <feFlood flood-opacity="0" result="BackgroundImageFix" />
            <feColorMatrix in="SourceAlpha" type="matrix"
                values="0 0 0 0 0 0 0 0 0 0 0 0 0 0 0 0 0 0 127 0" result="hardAlpha" />
            <feOffset dy="64" />
            <feGaussianBlur stdDeviation="42" />
            <feColorMatrix type="matrix"
                values="0 0 0 0 0.701961 0 0 0 0 0.615686 0 0 0 0 0.858824 0 0 0 0.5 0" />
            <feBlend mode="normal" in2="BackgroundImageFix" result="effect1_dropShadow_301_22829" />
            <feBlend mode="normal" in="SourceGraphic" in2="effect1_dropShadow_301_22829"
                result="shape" />
        </filter>
        <linearGradient id="paint0_linear_301_22829" x1="103.548" y1="107.825" x2="-9.95511"
            y2="-57.0164" gradientUnits="userSpaceOnUse">
            <stop stop-color="#4FA85E" />
            <stop offset="1" stop-color="#4FA85E" stop-opacity="0.56" />
        </linearGradient>
        <linearGradient id="paint1_linear_301_22829" x1="93.1039" y1="96.9495" x2="-8.95098"
            y2="-51.2654" gradientUnits="userSpaceOnUse">
            <stop stop-color="#4FA85E" />
            <stop offset="1" stop-color="#4FA85E" stop-opacity="0.56" />
        </linearGradient>
        <linearGradient id="paint2_linear_301_22829" x1="637.992" y1="267.368" x2="259.049"
            y2="358.771" gradientUnits="userSpaceOnUse">
            <stop stop-color="#F0C9C5" />
            <stop offset="1" stop-color="#FBE9E7" />
        </linearGradient>
        <linearGradient id="paint3_linear_301_22829" x1="667.674" y1="238.012" x2="495.805"
            y2="73.0826" gradientUnits="userSpaceOnUse">
            <stop stop-color="#F58124" />
            <stop offset="1" stop-color="#FFC266" />
        </linearGradient>
        <linearGradient id="paint4_linear_301_22829" x1="668.826" y1="237.416" x2="494.803"
            y2="71.0788" gradientUnits="userSpaceOnUse">
            <stop stop-color="#F58124" />
            <stop offset="1" stop-color="#FFC266" />
        </linearGradient>
        <linearGradient id="paint5_linear_301_22829" x1="540.577" y1="607.544" x2="387.957"
            y2="260.663" gradientUnits="userSpaceOnUse">
            <stop stop-color="#285A9F" />
            <stop offset="1" stop-color="#C0DAFE" />
        </linearGradient>
        <linearGradient id="paint6_linear_301_22829" x1="239.078" y1="129.972" x2="160.235"
            y2="-104.8" gradientUnits="userSpaceOnUse">
            <stop stop-color="#7DB0F7" />
            <stop offset="1" stop-color="#C0DAFE" />
        </linearGradient>
        <linearGradient id="paint7_linear_301_22829" x1="239.078" y1="129.972" x2="160.235"
            y2="-104.8" gradientUnits="userSpaceOnUse">
            <stop stop-color="#285A9F" />
            <stop offset="1" stop-color="#C0DAFE" />
        </linearGradient>
        <linearGradient id="paint8_linear_301_22829" x1="230.113" y1="129.972" x2="148.852"
            y2="-102.925" gradientUnits="userSpaceOnUse">
            <stop stop-color="#285A9F" />
            <stop offset="1" stop-color="#C0DAFE" />
        </linearGradient>
        <linearGradient id="paint9_linear_301_22829" x1="573.179" y1="470.308" x2="450.413"
            y2="338.844" gradientUnits="userSpaceOnUse">
            <stop stop-color="#285A9F" />
            <stop offset="1" stop-color="#C0DAFE" />
        </linearGradient>
        <linearGradient id="paint10_linear_301_22829" x1="573.179" y1="470.308" x2="450.413"
            y2="338.844" gradientUnits="userSpaceOnUse">
            <stop stop-color="#285A9F" />
            <stop offset="1" stop-color="#C0DAFE" />
        </linearGradient>
        <linearGradient id="paint11_linear_301_22829" x1="573.913" y1="469.804" x2="449.634"
            y2="337.14" gradientUnits="userSpaceOnUse">
            <stop stop-color="#285A9F" />
            <stop offset="1" stop-color="#C0DAFE" />
        </linearGradient>
        <linearGradient id="paint12_linear_301_22829" x1="103.548" y1="107.825" x2="-9.95511"
            y2="-57.0164" gradientUnits="userSpaceOnUse">
            <stop stop-color="#4FA85E" />
            <stop offset="1" stop-color="#4FA85E" stop-opacity="0.56" />
        </linearGradient>
        <linearGradient id="paint13_linear_301_22829" x1="95.8601" y1="99.8196" x2="-9.21596"
            y2="-52.7831" gradientUnits="userSpaceOnUse">
            <stop stop-color="#4FA85E" />
            <stop offset="1" stop-color="#4FA85E" stop-opacity="0.56" />
        </linearGradient>
    </defs>
</svg>